<?xml version="1.0" encoding="utf-8"?>
<svg xmlns="http://www.w3.org/2000/svg" xmlns:xlink="http://www.w3.org/1999/xlink" width="800" height="400" viewBox="0 0 3200 1600">
<defs>
  <clipPath id="clip450">
    <rect x="0" y="0" width="3200" height="1600"/>
  </clipPath>
</defs>
<path clip-path="url(#clip450)" d="
M0 1600 L3200 1600 L3200 0 L0 0  Z
  " fill="#ffffff" fill-rule="evenodd" fill-opacity="1"/>
<defs>
  <clipPath id="clip451">
    <rect x="640" y="0" width="2241" height="1600"/>
  </clipPath>
</defs>
<path clip-path="url(#clip450)" d="
M210.177 1495.09 L3152.76 1495.09 L3152.76 47.2441 L210.177 47.2441  Z
  " fill="#ffffff" fill-rule="evenodd" fill-opacity="1"/>
<defs>
  <clipPath id="clip452">
    <rect x="210" y="47" width="2944" height="1449"/>
  </clipPath>
</defs>
<polyline clip-path="url(#clip452)" style="stroke:#000000; stroke-width:2; stroke-opacity:0.1; fill:none" points="
  496.581,1495.09 496.581,47.2441 
  "/>
<polyline clip-path="url(#clip452)" style="stroke:#000000; stroke-width:2; stroke-opacity:0.1; fill:none" points="
  1173.66,1495.09 1173.66,47.2441 
  "/>
<polyline clip-path="url(#clip452)" style="stroke:#000000; stroke-width:2; stroke-opacity:0.1; fill:none" points="
  1850.74,1495.09 1850.74,47.2441 
  "/>
<polyline clip-path="url(#clip452)" style="stroke:#000000; stroke-width:2; stroke-opacity:0.1; fill:none" points="
  2527.81,1495.09 2527.81,47.2441 
  "/>
<polyline clip-path="url(#clip450)" style="stroke:#000000; stroke-width:4; stroke-opacity:1; fill:none" points="
  210.177,1495.09 3152.76,1495.09 
  "/>
<polyline clip-path="url(#clip450)" style="stroke:#000000; stroke-width:4; stroke-opacity:1; fill:none" points="
  496.581,1495.09 496.581,1477.71 
  "/>
<polyline clip-path="url(#clip450)" style="stroke:#000000; stroke-width:4; stroke-opacity:1; fill:none" points="
  1173.66,1495.09 1173.66,1477.71 
  "/>
<polyline clip-path="url(#clip450)" style="stroke:#000000; stroke-width:4; stroke-opacity:1; fill:none" points="
  1850.74,1495.09 1850.74,1477.71 
  "/>
<polyline clip-path="url(#clip450)" style="stroke:#000000; stroke-width:4; stroke-opacity:1; fill:none" points="
  2527.81,1495.09 2527.81,1477.71 
  "/>
<path clip-path="url(#clip450)" d="M 0 0 M410.944 1558.22 L418.583 1558.22 L418.583 1531.86 L410.273 1533.53 L410.273 1529.27 L418.537 1527.6 L423.213 1527.6 L423.213 1558.22 L430.852 1558.22 L430.852 1562.16 L410.944 1562.16 L410.944 1558.22 Z" fill="#000000" fill-rule="evenodd" fill-opacity="1" /><path clip-path="url(#clip450)" d="M 0 0 M444.324 1558.22 L460.643 1558.22 L460.643 1562.16 L438.699 1562.16 L438.699 1558.22 Q441.361 1555.47 445.944 1550.84 Q450.551 1546.19 451.731 1544.85 Q453.977 1542.32 454.856 1540.59 Q455.759 1538.83 455.759 1537.14 Q455.759 1534.38 453.815 1532.65 Q451.893 1530.91 448.791 1530.91 Q446.592 1530.91 444.139 1531.67 Q441.708 1532.44 438.93 1533.99 L438.93 1529.27 Q441.754 1528.13 444.208 1527.55 Q446.662 1526.97 448.699 1526.97 Q454.069 1526.97 457.264 1529.66 Q460.458 1532.35 460.458 1536.84 Q460.458 1538.97 459.648 1540.89 Q458.861 1542.78 456.754 1545.38 Q456.176 1546.05 453.074 1549.27 Q449.972 1552.46 444.324 1558.22 Z" fill="#000000" fill-rule="evenodd" fill-opacity="1" /><path clip-path="url(#clip450)" d="M 0 0 M480.458 1545.75 Q477.125 1545.75 475.203 1547.53 Q473.305 1549.31 473.305 1552.44 Q473.305 1555.56 475.203 1557.35 Q477.125 1559.13 480.458 1559.13 Q483.791 1559.13 485.713 1557.35 Q487.634 1555.54 487.634 1552.44 Q487.634 1549.31 485.713 1547.53 Q483.814 1545.75 480.458 1545.75 M475.782 1543.76 Q472.773 1543.02 471.083 1540.96 Q469.416 1538.9 469.416 1535.93 Q469.416 1531.79 472.356 1529.38 Q475.319 1526.97 480.458 1526.97 Q485.62 1526.97 488.56 1529.38 Q491.5 1531.79 491.5 1535.93 Q491.5 1538.9 489.81 1540.96 Q488.143 1543.02 485.157 1543.76 Q488.537 1544.54 490.412 1546.84 Q492.31 1549.13 492.31 1552.44 Q492.31 1557.46 489.231 1560.15 Q486.175 1562.83 480.458 1562.83 Q474.74 1562.83 471.662 1560.15 Q468.606 1557.46 468.606 1552.44 Q468.606 1549.13 470.504 1546.84 Q472.402 1544.54 475.782 1543.76 M474.069 1536.37 Q474.069 1539.06 475.736 1540.56 Q477.426 1542.07 480.458 1542.07 Q483.467 1542.07 485.157 1540.56 Q486.87 1539.06 486.87 1536.37 Q486.87 1533.69 485.157 1532.18 Q483.467 1530.68 480.458 1530.68 Q477.426 1530.68 475.736 1532.18 Q474.069 1533.69 474.069 1536.37 Z" fill="#000000" fill-rule="evenodd" fill-opacity="1" /><path clip-path="url(#clip450)" d="M 0 0 M510.62 1530.68 Q507.009 1530.68 505.18 1534.24 Q503.374 1537.79 503.374 1544.91 Q503.374 1552.02 505.18 1555.59 Q507.009 1559.13 510.62 1559.13 Q514.254 1559.13 516.06 1555.59 Q517.888 1552.02 517.888 1544.91 Q517.888 1537.79 516.06 1534.24 Q514.254 1530.68 510.62 1530.68 M510.62 1526.97 Q516.43 1526.97 519.485 1531.58 Q522.564 1536.16 522.564 1544.91 Q522.564 1553.64 519.485 1558.25 Q516.43 1562.83 510.62 1562.83 Q504.81 1562.83 501.731 1558.25 Q498.675 1553.64 498.675 1544.91 Q498.675 1536.16 501.731 1531.58 Q504.81 1526.97 510.62 1526.97 Z" fill="#000000" fill-rule="evenodd" fill-opacity="1" /><path clip-path="url(#clip450)" d="M 0 0 M540.782 1530.68 Q537.171 1530.68 535.342 1534.24 Q533.536 1537.79 533.536 1544.91 Q533.536 1552.02 535.342 1555.59 Q537.171 1559.13 540.782 1559.13 Q544.416 1559.13 546.221 1555.59 Q548.05 1552.02 548.05 1544.91 Q548.05 1537.79 546.221 1534.24 Q544.416 1530.68 540.782 1530.68 M540.782 1526.97 Q546.592 1526.97 549.647 1531.58 Q552.726 1536.16 552.726 1544.91 Q552.726 1553.64 549.647 1558.25 Q546.592 1562.83 540.782 1562.83 Q534.972 1562.83 531.893 1558.25 Q528.837 1553.64 528.837 1544.91 Q528.837 1536.16 531.893 1531.58 Q534.972 1526.97 540.782 1526.97 Z" fill="#000000" fill-rule="evenodd" fill-opacity="1" /><path clip-path="url(#clip450)" d="M 0 0 M570.944 1530.68 Q567.332 1530.68 565.504 1534.24 Q563.698 1537.79 563.698 1544.91 Q563.698 1552.02 565.504 1555.59 Q567.332 1559.13 570.944 1559.13 Q574.578 1559.13 576.383 1555.59 Q578.212 1552.02 578.212 1544.91 Q578.212 1537.79 576.383 1534.24 Q574.578 1530.68 570.944 1530.68 M570.944 1526.97 Q576.754 1526.97 579.809 1531.58 Q582.888 1536.16 582.888 1544.91 Q582.888 1553.64 579.809 1558.25 Q576.754 1562.83 570.944 1562.83 Q565.133 1562.83 562.055 1558.25 Q558.999 1553.64 558.999 1544.91 Q558.999 1536.16 562.055 1531.58 Q565.133 1526.97 570.944 1526.97 Z" fill="#000000" fill-rule="evenodd" fill-opacity="1" /><path clip-path="url(#clip450)" d="M 0 0 M1088.02 1558.22 L1095.66 1558.22 L1095.66 1531.86 L1087.35 1533.53 L1087.35 1529.27 L1095.61 1527.6 L1100.29 1527.6 L1100.29 1558.22 L1107.93 1558.22 L1107.93 1562.16 L1088.02 1562.16 L1088.02 1558.22 Z" fill="#000000" fill-rule="evenodd" fill-opacity="1" /><path clip-path="url(#clip450)" d="M 0 0 M1121.4 1558.22 L1137.72 1558.22 L1137.72 1562.16 L1115.78 1562.16 L1115.78 1558.22 Q1118.44 1555.47 1123.02 1550.84 Q1127.63 1546.19 1128.81 1544.85 Q1131.05 1542.32 1131.93 1540.59 Q1132.84 1538.83 1132.84 1537.14 Q1132.84 1534.38 1130.89 1532.65 Q1128.97 1530.91 1125.87 1530.91 Q1123.67 1530.91 1121.22 1531.67 Q1118.79 1532.44 1116.01 1533.99 L1116.01 1529.27 Q1118.83 1528.13 1121.29 1527.55 Q1123.74 1526.97 1125.78 1526.97 Q1131.15 1526.97 1134.34 1529.66 Q1137.54 1532.35 1137.54 1536.84 Q1137.54 1538.97 1136.73 1540.89 Q1135.94 1542.78 1133.83 1545.38 Q1133.25 1546.05 1130.15 1549.27 Q1127.05 1552.46 1121.4 1558.22 Z" fill="#000000" fill-rule="evenodd" fill-opacity="1" /><path clip-path="url(#clip450)" d="M 0 0 M1147.67 1561.44 L1147.67 1557.18 Q1149.43 1558.02 1151.24 1558.46 Q1153.04 1558.9 1154.78 1558.9 Q1159.41 1558.9 1161.84 1555.79 Q1164.29 1552.67 1164.64 1546.33 Q1163.3 1548.32 1161.24 1549.38 Q1159.18 1550.45 1156.68 1550.45 Q1151.49 1550.45 1148.46 1547.32 Q1145.45 1544.17 1145.45 1538.73 Q1145.45 1533.41 1148.6 1530.19 Q1151.75 1526.97 1156.98 1526.97 Q1162.98 1526.97 1166.12 1531.58 Q1169.29 1536.16 1169.29 1544.91 Q1169.29 1553.09 1165.41 1557.97 Q1161.54 1562.83 1154.99 1562.83 Q1153.23 1562.83 1151.42 1562.48 Q1149.62 1562.14 1147.67 1561.44 M1156.98 1546.79 Q1160.13 1546.79 1161.96 1544.64 Q1163.81 1542.48 1163.81 1538.73 Q1163.81 1535.01 1161.96 1532.85 Q1160.13 1530.68 1156.98 1530.68 Q1153.83 1530.68 1151.98 1532.85 Q1150.15 1535.01 1150.15 1538.73 Q1150.15 1542.48 1151.98 1544.64 Q1153.83 1546.79 1156.98 1546.79 Z" fill="#000000" fill-rule="evenodd" fill-opacity="1" /><path clip-path="url(#clip450)" d="M 0 0 M1187.7 1530.68 Q1184.09 1530.68 1182.26 1534.24 Q1180.45 1537.79 1180.45 1544.91 Q1180.45 1552.02 1182.26 1555.59 Q1184.09 1559.13 1187.7 1559.13 Q1191.33 1559.13 1193.14 1555.59 Q1194.97 1552.02 1194.97 1544.91 Q1194.97 1537.79 1193.14 1534.24 Q1191.33 1530.68 1187.7 1530.68 M1187.7 1526.97 Q1193.51 1526.97 1196.56 1531.58 Q1199.64 1536.16 1199.64 1544.91 Q1199.64 1553.64 1196.56 1558.25 Q1193.51 1562.83 1187.7 1562.83 Q1181.89 1562.83 1178.81 1558.25 Q1175.75 1553.64 1175.75 1544.91 Q1175.75 1536.16 1178.81 1531.58 Q1181.89 1526.97 1187.7 1526.97 Z" fill="#000000" fill-rule="evenodd" fill-opacity="1" /><path clip-path="url(#clip450)" d="M 0 0 M1217.86 1530.68 Q1214.25 1530.68 1212.42 1534.24 Q1210.61 1537.79 1210.61 1544.91 Q1210.61 1552.02 1212.42 1555.59 Q1214.25 1559.13 1217.86 1559.13 Q1221.49 1559.13 1223.3 1555.59 Q1225.13 1552.02 1225.13 1544.91 Q1225.13 1537.79 1223.3 1534.24 Q1221.49 1530.68 1217.86 1530.68 M1217.86 1526.97 Q1223.67 1526.97 1226.72 1531.58 Q1229.8 1536.16 1229.8 1544.91 Q1229.8 1553.64 1226.72 1558.25 Q1223.67 1562.83 1217.86 1562.83 Q1212.05 1562.83 1208.97 1558.25 Q1205.91 1553.64 1205.91 1544.91 Q1205.91 1536.16 1208.97 1531.58 Q1212.05 1526.97 1217.86 1526.97 Z" fill="#000000" fill-rule="evenodd" fill-opacity="1" /><path clip-path="url(#clip450)" d="M 0 0 M1248.02 1530.68 Q1244.41 1530.68 1242.58 1534.24 Q1240.78 1537.79 1240.78 1544.91 Q1240.78 1552.02 1242.58 1555.59 Q1244.41 1559.13 1248.02 1559.13 Q1251.66 1559.13 1253.46 1555.59 Q1255.29 1552.02 1255.29 1544.91 Q1255.29 1537.79 1253.46 1534.24 Q1251.66 1530.68 1248.02 1530.68 M1248.02 1526.97 Q1253.83 1526.97 1256.89 1531.58 Q1259.97 1536.16 1259.97 1544.91 Q1259.97 1553.64 1256.89 1558.25 Q1253.83 1562.83 1248.02 1562.83 Q1242.21 1562.83 1239.13 1558.25 Q1236.08 1553.64 1236.08 1544.91 Q1236.08 1536.16 1239.13 1531.58 Q1242.21 1526.97 1248.02 1526.97 Z" fill="#000000" fill-rule="evenodd" fill-opacity="1" /><path clip-path="url(#clip450)" d="M 0 0 M1765.1 1558.22 L1772.74 1558.22 L1772.74 1531.86 L1764.43 1533.53 L1764.43 1529.27 L1772.69 1527.6 L1777.37 1527.6 L1777.37 1558.22 L1785.01 1558.22 L1785.01 1562.16 L1765.1 1562.16 L1765.1 1558.22 Z" fill="#000000" fill-rule="evenodd" fill-opacity="1" /><path clip-path="url(#clip450)" d="M 0 0 M1808.62 1543.53 Q1811.97 1544.24 1813.85 1546.51 Q1815.75 1548.78 1815.75 1552.11 Q1815.75 1557.23 1812.23 1560.03 Q1808.71 1562.83 1802.23 1562.83 Q1800.05 1562.83 1797.74 1562.39 Q1795.45 1561.97 1792.99 1561.12 L1792.99 1556.6 Q1794.94 1557.74 1797.25 1558.32 Q1799.57 1558.9 1802.09 1558.9 Q1806.49 1558.9 1808.78 1557.16 Q1811.09 1555.42 1811.09 1552.11 Q1811.09 1549.06 1808.94 1547.35 Q1806.81 1545.61 1802.99 1545.61 L1798.97 1545.61 L1798.97 1541.77 L1803.18 1541.77 Q1806.63 1541.77 1808.46 1540.4 Q1810.28 1539.01 1810.28 1536.42 Q1810.28 1533.76 1808.39 1532.35 Q1806.51 1530.91 1802.99 1530.91 Q1801.07 1530.91 1798.87 1531.33 Q1796.67 1531.74 1794.03 1532.62 L1794.03 1528.46 Q1796.7 1527.72 1799.01 1527.35 Q1801.35 1526.97 1803.41 1526.97 Q1808.73 1526.97 1811.84 1529.41 Q1814.94 1531.81 1814.94 1535.93 Q1814.94 1538.8 1813.29 1540.79 Q1811.65 1542.76 1808.62 1543.53 Z" fill="#000000" fill-rule="evenodd" fill-opacity="1" /><path clip-path="url(#clip450)" d="M 0 0 M1834.61 1530.68 Q1831 1530.68 1829.17 1534.24 Q1827.37 1537.79 1827.37 1544.91 Q1827.37 1552.02 1829.17 1555.59 Q1831 1559.13 1834.61 1559.13 Q1838.25 1559.13 1840.05 1555.59 Q1841.88 1552.02 1841.88 1544.91 Q1841.88 1537.79 1840.05 1534.24 Q1838.25 1530.68 1834.61 1530.68 M1834.61 1526.97 Q1840.42 1526.97 1843.48 1531.58 Q1846.56 1536.16 1846.56 1544.91 Q1846.56 1553.64 1843.48 1558.25 Q1840.42 1562.83 1834.61 1562.83 Q1828.8 1562.83 1825.72 1558.25 Q1822.67 1553.64 1822.67 1544.91 Q1822.67 1536.16 1825.72 1531.58 Q1828.8 1526.97 1834.61 1526.97 Z" fill="#000000" fill-rule="evenodd" fill-opacity="1" /><path clip-path="url(#clip450)" d="M 0 0 M1864.77 1530.68 Q1861.16 1530.68 1859.34 1534.24 Q1857.53 1537.79 1857.53 1544.91 Q1857.53 1552.02 1859.34 1555.59 Q1861.16 1559.13 1864.77 1559.13 Q1868.41 1559.13 1870.21 1555.59 Q1872.04 1552.02 1872.04 1544.91 Q1872.04 1537.79 1870.21 1534.24 Q1868.41 1530.68 1864.77 1530.68 M1864.77 1526.97 Q1870.59 1526.97 1873.64 1531.58 Q1876.72 1536.16 1876.72 1544.91 Q1876.72 1553.64 1873.64 1558.25 Q1870.59 1562.83 1864.77 1562.83 Q1858.96 1562.83 1855.89 1558.25 Q1852.83 1553.64 1852.83 1544.91 Q1852.83 1536.16 1855.89 1531.58 Q1858.96 1526.97 1864.77 1526.97 Z" fill="#000000" fill-rule="evenodd" fill-opacity="1" /><path clip-path="url(#clip450)" d="M 0 0 M1894.94 1530.68 Q1891.33 1530.68 1889.5 1534.24 Q1887.69 1537.79 1887.69 1544.91 Q1887.69 1552.02 1889.5 1555.59 Q1891.33 1559.13 1894.94 1559.13 Q1898.57 1559.13 1900.38 1555.59 Q1902.21 1552.02 1902.21 1544.91 Q1902.21 1537.79 1900.38 1534.24 Q1898.57 1530.68 1894.94 1530.68 M1894.94 1526.97 Q1900.75 1526.97 1903.8 1531.58 Q1906.88 1536.16 1906.88 1544.91 Q1906.88 1553.64 1903.8 1558.25 Q1900.75 1562.83 1894.94 1562.83 Q1889.13 1562.83 1886.05 1558.25 Q1882.99 1553.64 1882.99 1544.91 Q1882.99 1536.16 1886.05 1531.58 Q1889.13 1526.97 1894.94 1526.97 Z" fill="#000000" fill-rule="evenodd" fill-opacity="1" /><path clip-path="url(#clip450)" d="M 0 0 M1925.1 1530.68 Q1921.49 1530.68 1919.66 1534.24 Q1917.85 1537.79 1917.85 1544.91 Q1917.85 1552.02 1919.66 1555.59 Q1921.49 1559.13 1925.1 1559.13 Q1928.73 1559.13 1930.54 1555.59 Q1932.37 1552.02 1932.37 1544.91 Q1932.37 1537.79 1930.54 1534.24 Q1928.73 1530.68 1925.1 1530.68 M1925.1 1526.97 Q1930.91 1526.97 1933.96 1531.58 Q1937.04 1536.16 1937.04 1544.91 Q1937.04 1553.64 1933.96 1558.25 Q1930.91 1562.83 1925.1 1562.83 Q1919.29 1562.83 1916.21 1558.25 Q1913.15 1553.64 1913.15 1544.91 Q1913.15 1536.16 1916.21 1531.58 Q1919.29 1526.97 1925.1 1526.97 Z" fill="#000000" fill-rule="evenodd" fill-opacity="1" /><path clip-path="url(#clip450)" d="M 0 0 M2442.18 1558.22 L2449.82 1558.22 L2449.82 1531.86 L2441.51 1533.53 L2441.51 1529.27 L2449.77 1527.6 L2454.45 1527.6 L2454.45 1558.22 L2462.08 1558.22 L2462.08 1562.16 L2442.18 1562.16 L2442.18 1558.22 Z" fill="#000000" fill-rule="evenodd" fill-opacity="1" /><path clip-path="url(#clip450)" d="M 0 0 M2485.7 1543.53 Q2489.05 1544.24 2490.93 1546.51 Q2492.83 1548.78 2492.83 1552.11 Q2492.83 1557.23 2489.31 1560.03 Q2485.79 1562.83 2479.31 1562.83 Q2477.13 1562.83 2474.82 1562.39 Q2472.52 1561.97 2470.07 1561.12 L2470.07 1556.6 Q2472.01 1557.74 2474.33 1558.32 Q2476.64 1558.9 2479.17 1558.9 Q2483.57 1558.9 2485.86 1557.16 Q2488.17 1555.42 2488.17 1552.11 Q2488.17 1549.06 2486.02 1547.35 Q2483.89 1545.61 2480.07 1545.61 L2476.04 1545.61 L2476.04 1541.77 L2480.26 1541.77 Q2483.7 1541.77 2485.53 1540.4 Q2487.36 1539.01 2487.36 1536.42 Q2487.36 1533.76 2485.46 1532.35 Q2483.59 1530.91 2480.07 1530.91 Q2478.15 1530.91 2475.95 1531.33 Q2473.75 1531.74 2471.11 1532.62 L2471.11 1528.46 Q2473.77 1527.72 2476.09 1527.35 Q2478.43 1526.97 2480.49 1526.97 Q2485.81 1526.97 2488.91 1529.41 Q2492.01 1531.81 2492.01 1535.93 Q2492.01 1538.8 2490.37 1540.79 Q2488.73 1542.76 2485.7 1543.53 Z" fill="#000000" fill-rule="evenodd" fill-opacity="1" /><path clip-path="url(#clip450)" d="M 0 0 M2502.5 1558.22 L2510.14 1558.22 L2510.14 1531.86 L2501.83 1533.53 L2501.83 1529.27 L2510.09 1527.6 L2514.77 1527.6 L2514.77 1558.22 L2522.41 1558.22 L2522.41 1562.16 L2502.5 1562.16 L2502.5 1558.22 Z" fill="#000000" fill-rule="evenodd" fill-opacity="1" /><path clip-path="url(#clip450)" d="M 0 0 M2541.85 1530.68 Q2538.24 1530.68 2536.41 1534.24 Q2534.61 1537.79 2534.61 1544.91 Q2534.61 1552.02 2536.41 1555.59 Q2538.24 1559.13 2541.85 1559.13 Q2545.49 1559.13 2547.29 1555.59 Q2549.12 1552.02 2549.12 1544.91 Q2549.12 1537.79 2547.29 1534.24 Q2545.49 1530.68 2541.85 1530.68 M2541.85 1526.97 Q2547.66 1526.97 2550.72 1531.58 Q2553.8 1536.16 2553.8 1544.91 Q2553.8 1553.64 2550.72 1558.25 Q2547.66 1562.83 2541.85 1562.83 Q2536.04 1562.83 2532.96 1558.25 Q2529.91 1553.64 2529.91 1544.91 Q2529.91 1536.16 2532.96 1531.58 Q2536.04 1526.97 2541.85 1526.97 Z" fill="#000000" fill-rule="evenodd" fill-opacity="1" /><path clip-path="url(#clip450)" d="M 0 0 M2572.01 1530.68 Q2568.4 1530.68 2566.57 1534.24 Q2564.77 1537.79 2564.77 1544.91 Q2564.77 1552.02 2566.57 1555.59 Q2568.4 1559.13 2572.01 1559.13 Q2575.65 1559.13 2577.45 1555.59 Q2579.28 1552.02 2579.28 1544.91 Q2579.28 1537.79 2577.45 1534.24 Q2575.65 1530.68 2572.01 1530.68 M2572.01 1526.97 Q2577.82 1526.97 2580.88 1531.58 Q2583.96 1536.16 2583.96 1544.91 Q2583.96 1553.64 2580.88 1558.25 Q2577.82 1562.83 2572.01 1562.83 Q2566.2 1562.83 2563.13 1558.25 Q2560.07 1553.64 2560.07 1544.91 Q2560.07 1536.16 2563.13 1531.58 Q2566.2 1526.97 2572.01 1526.97 Z" fill="#000000" fill-rule="evenodd" fill-opacity="1" /><path clip-path="url(#clip450)" d="M 0 0 M2602.18 1530.68 Q2598.57 1530.68 2596.74 1534.24 Q2594.93 1537.79 2594.93 1544.91 Q2594.93 1552.02 2596.74 1555.59 Q2598.57 1559.13 2602.18 1559.13 Q2605.81 1559.13 2607.62 1555.59 Q2609.44 1552.02 2609.44 1544.91 Q2609.44 1537.79 2607.62 1534.24 Q2605.81 1530.68 2602.18 1530.68 M2602.18 1526.97 Q2607.99 1526.97 2611.04 1531.58 Q2614.12 1536.16 2614.12 1544.91 Q2614.12 1553.64 2611.04 1558.25 Q2607.99 1562.83 2602.18 1562.83 Q2596.37 1562.83 2593.29 1558.25 Q2590.23 1553.64 2590.23 1544.91 Q2590.23 1536.16 2593.29 1531.58 Q2596.37 1526.97 2602.18 1526.97 Z" fill="#000000" fill-rule="evenodd" fill-opacity="1" /><polyline clip-path="url(#clip452)" style="stroke:#000000; stroke-width:2; stroke-opacity:0.1; fill:none" points="
  210.177,1454.11 3152.76,1454.11 
  "/>
<polyline clip-path="url(#clip452)" style="stroke:#000000; stroke-width:2; stroke-opacity:0.1; fill:none" points="
  210.177,1151.89 3152.76,1151.89 
  "/>
<polyline clip-path="url(#clip452)" style="stroke:#000000; stroke-width:2; stroke-opacity:0.1; fill:none" points="
  210.177,849.676 3152.76,849.676 
  "/>
<polyline clip-path="url(#clip452)" style="stroke:#000000; stroke-width:2; stroke-opacity:0.1; fill:none" points="
  210.177,547.459 3152.76,547.459 
  "/>
<polyline clip-path="url(#clip452)" style="stroke:#000000; stroke-width:2; stroke-opacity:0.1; fill:none" points="
  210.177,245.242 3152.76,245.242 
  "/>
<polyline clip-path="url(#clip450)" style="stroke:#000000; stroke-width:4; stroke-opacity:1; fill:none" points="
  210.177,1495.09 210.177,47.2441 
  "/>
<polyline clip-path="url(#clip450)" style="stroke:#000000; stroke-width:4; stroke-opacity:1; fill:none" points="
  210.177,1454.11 245.488,1454.11 
  "/>
<polyline clip-path="url(#clip450)" style="stroke:#000000; stroke-width:4; stroke-opacity:1; fill:none" points="
  210.177,1151.89 245.488,1151.89 
  "/>
<polyline clip-path="url(#clip450)" style="stroke:#000000; stroke-width:4; stroke-opacity:1; fill:none" points="
  210.177,849.676 245.488,849.676 
  "/>
<polyline clip-path="url(#clip450)" style="stroke:#000000; stroke-width:4; stroke-opacity:1; fill:none" points="
  210.177,547.459 245.488,547.459 
  "/>
<polyline clip-path="url(#clip450)" style="stroke:#000000; stroke-width:4; stroke-opacity:1; fill:none" points="
  210.177,245.242 245.488,245.242 
  "/>
<path clip-path="url(#clip450)" d="M 0 0 M150.232 1439.91 Q146.621 1439.91 144.793 1443.47 Q142.987 1447.02 142.987 1454.15 Q142.987 1461.25 144.793 1464.82 Q146.621 1468.36 150.232 1468.36 Q153.867 1468.36 155.672 1464.82 Q157.501 1461.25 157.501 1454.15 Q157.501 1447.02 155.672 1443.47 Q153.867 1439.91 150.232 1439.91 M150.232 1436.21 Q156.042 1436.21 159.098 1440.81 Q162.177 1445.4 162.177 1454.15 Q162.177 1462.87 159.098 1467.48 Q156.042 1472.06 150.232 1472.06 Q144.422 1472.06 141.343 1467.48 Q138.288 1462.87 138.288 1454.15 Q138.288 1445.4 141.343 1440.81 Q144.422 1436.21 150.232 1436.21 Z" fill="#000000" fill-rule="evenodd" fill-opacity="1" /><path clip-path="url(#clip450)" d="M 0 0 M50.5569 1165.24 L58.1958 1165.24 L58.1958 1138.87 L49.8856 1140.54 L49.8856 1136.28 L58.1495 1134.61 L62.8254 1134.61 L62.8254 1165.24 L70.4642 1165.24 L70.4642 1169.17 L50.5569 1169.17 L50.5569 1165.24 Z" fill="#000000" fill-rule="evenodd" fill-opacity="1" /><path clip-path="url(#clip450)" d="M 0 0 M89.9086 1137.69 Q86.2975 1137.69 84.4688 1141.26 Q82.6632 1144.8 82.6632 1151.93 Q82.6632 1159.03 84.4688 1162.6 Q86.2975 1166.14 89.9086 1166.14 Q93.5428 1166.14 95.3483 1162.6 Q97.177 1159.03 97.177 1151.93 Q97.177 1144.8 95.3483 1141.26 Q93.5428 1137.69 89.9086 1137.69 M89.9086 1133.99 Q95.7187 1133.99 98.7743 1138.6 Q101.853 1143.18 101.853 1151.93 Q101.853 1160.66 98.7743 1165.26 Q95.7187 1169.85 89.9086 1169.85 Q84.0984 1169.85 81.0197 1165.26 Q77.9642 1160.66 77.9642 1151.93 Q77.9642 1143.18 81.0197 1138.6 Q84.0984 1133.99 89.9086 1133.99 Z" fill="#000000" fill-rule="evenodd" fill-opacity="1" /><path clip-path="url(#clip450)" d="M 0 0 M120.07 1137.69 Q116.459 1137.69 114.631 1141.26 Q112.825 1144.8 112.825 1151.93 Q112.825 1159.03 114.631 1162.6 Q116.459 1166.14 120.07 1166.14 Q123.705 1166.14 125.51 1162.6 Q127.339 1159.03 127.339 1151.93 Q127.339 1144.8 125.51 1141.26 Q123.705 1137.69 120.07 1137.69 M120.07 1133.99 Q125.881 1133.99 128.936 1138.6 Q132.015 1143.18 132.015 1151.93 Q132.015 1160.66 128.936 1165.26 Q125.881 1169.85 120.07 1169.85 Q114.26 1169.85 111.182 1165.26 Q108.126 1160.66 108.126 1151.93 Q108.126 1143.18 111.182 1138.6 Q114.26 1133.99 120.07 1133.99 Z" fill="#000000" fill-rule="evenodd" fill-opacity="1" /><path clip-path="url(#clip450)" d="M 0 0 M150.232 1137.69 Q146.621 1137.69 144.793 1141.26 Q142.987 1144.8 142.987 1151.93 Q142.987 1159.03 144.793 1162.6 Q146.621 1166.14 150.232 1166.14 Q153.867 1166.14 155.672 1162.6 Q157.501 1159.03 157.501 1151.93 Q157.501 1144.8 155.672 1141.26 Q153.867 1137.69 150.232 1137.69 M150.232 1133.99 Q156.042 1133.99 159.098 1138.6 Q162.177 1143.18 162.177 1151.93 Q162.177 1160.66 159.098 1165.26 Q156.042 1169.85 150.232 1169.85 Q144.422 1169.85 141.343 1165.26 Q138.288 1160.66 138.288 1151.93 Q138.288 1143.18 141.343 1138.6 Q144.422 1133.99 150.232 1133.99 Z" fill="#000000" fill-rule="evenodd" fill-opacity="1" /><path clip-path="url(#clip450)" d="M 0 0 M53.7745 863.021 L70.0939 863.021 L70.0939 866.956 L48.1495 866.956 L48.1495 863.021 Q50.8115 860.267 55.3949 855.637 Q60.0013 850.984 61.1819 849.642 Q63.4272 847.118 64.3068 845.382 Q65.2096 843.623 65.2096 841.933 Q65.2096 839.179 63.2652 837.443 Q61.3439 835.707 58.2421 835.707 Q56.043 835.707 53.5893 836.47 Q51.1588 837.234 48.381 838.785 L48.381 834.063 Q51.2051 832.929 53.6588 832.35 Q56.1124 831.771 58.1495 831.771 Q63.5198 831.771 66.7142 834.457 Q69.9087 837.142 69.9087 841.632 Q69.9087 843.762 69.0985 845.683 Q68.3115 847.581 66.205 850.174 Q65.6263 850.845 62.5245 854.063 Q59.4226 857.257 53.7745 863.021 Z" fill="#000000" fill-rule="evenodd" fill-opacity="1" /><path clip-path="url(#clip450)" d="M 0 0 M89.9086 835.475 Q86.2975 835.475 84.4688 839.04 Q82.6632 842.581 82.6632 849.711 Q82.6632 856.818 84.4688 860.382 Q86.2975 863.924 89.9086 863.924 Q93.5428 863.924 95.3483 860.382 Q97.177 856.818 97.177 849.711 Q97.177 842.581 95.3483 839.04 Q93.5428 835.475 89.9086 835.475 M89.9086 831.771 Q95.7187 831.771 98.7743 836.378 Q101.853 840.961 101.853 849.711 Q101.853 858.438 98.7743 863.044 Q95.7187 867.628 89.9086 867.628 Q84.0984 867.628 81.0197 863.044 Q77.9642 858.438 77.9642 849.711 Q77.9642 840.961 81.0197 836.378 Q84.0984 831.771 89.9086 831.771 Z" fill="#000000" fill-rule="evenodd" fill-opacity="1" /><path clip-path="url(#clip450)" d="M 0 0 M120.07 835.475 Q116.459 835.475 114.631 839.04 Q112.825 842.581 112.825 849.711 Q112.825 856.818 114.631 860.382 Q116.459 863.924 120.07 863.924 Q123.705 863.924 125.51 860.382 Q127.339 856.818 127.339 849.711 Q127.339 842.581 125.51 839.04 Q123.705 835.475 120.07 835.475 M120.07 831.771 Q125.881 831.771 128.936 836.378 Q132.015 840.961 132.015 849.711 Q132.015 858.438 128.936 863.044 Q125.881 867.628 120.07 867.628 Q114.26 867.628 111.182 863.044 Q108.126 858.438 108.126 849.711 Q108.126 840.961 111.182 836.378 Q114.26 831.771 120.07 831.771 Z" fill="#000000" fill-rule="evenodd" fill-opacity="1" /><path clip-path="url(#clip450)" d="M 0 0 M150.232 835.475 Q146.621 835.475 144.793 839.04 Q142.987 842.581 142.987 849.711 Q142.987 856.818 144.793 860.382 Q146.621 863.924 150.232 863.924 Q153.867 863.924 155.672 860.382 Q157.501 856.818 157.501 849.711 Q157.501 842.581 155.672 839.04 Q153.867 835.475 150.232 835.475 M150.232 831.771 Q156.042 831.771 159.098 836.378 Q162.177 840.961 162.177 849.711 Q162.177 858.438 159.098 863.044 Q156.042 867.628 150.232 867.628 Q144.422 867.628 141.343 863.044 Q138.288 858.438 138.288 849.711 Q138.288 840.961 141.343 836.378 Q144.422 831.771 150.232 831.771 Z" fill="#000000" fill-rule="evenodd" fill-opacity="1" /><path clip-path="url(#clip450)" d="M 0 0 M63.9133 546.105 Q67.2698 546.822 69.1448 549.091 Q71.0429 551.359 71.0429 554.693 Q71.0429 559.808 67.5244 562.609 Q64.0059 565.41 57.5245 565.41 Q55.3486 565.41 53.0338 564.97 Q50.7421 564.554 48.2884 563.697 L48.2884 559.183 Q50.2328 560.318 52.5477 560.896 Q54.8625 561.475 57.3856 561.475 Q61.7837 561.475 64.0754 559.739 Q66.3902 558.003 66.3902 554.693 Q66.3902 551.637 64.2374 549.924 Q62.1078 548.188 58.2884 548.188 L54.2606 548.188 L54.2606 544.346 L58.4735 544.346 Q61.9226 544.346 63.7513 542.98 Q65.58 541.591 65.58 538.998 Q65.58 536.336 63.6819 534.924 Q61.8069 533.489 58.2884 533.489 Q56.3671 533.489 54.168 533.906 Q51.969 534.322 49.3301 535.202 L49.3301 531.035 Q51.9921 530.295 54.3069 529.924 Q56.6449 529.554 58.705 529.554 Q64.0291 529.554 67.1309 531.984 Q70.2327 534.392 70.2327 538.512 Q70.2327 541.383 68.5892 543.373 Q66.9457 545.341 63.9133 546.105 Z" fill="#000000" fill-rule="evenodd" fill-opacity="1" /><path clip-path="url(#clip450)" d="M 0 0 M89.9086 533.258 Q86.2975 533.258 84.4688 536.822 Q82.6632 540.364 82.6632 547.494 Q82.6632 554.6 84.4688 558.165 Q86.2975 561.707 89.9086 561.707 Q93.5428 561.707 95.3483 558.165 Q97.177 554.6 97.177 547.494 Q97.177 540.364 95.3483 536.822 Q93.5428 533.258 89.9086 533.258 M89.9086 529.554 Q95.7187 529.554 98.7743 534.16 Q101.853 538.744 101.853 547.494 Q101.853 556.22 98.7743 560.827 Q95.7187 565.41 89.9086 565.41 Q84.0984 565.41 81.0197 560.827 Q77.9642 556.22 77.9642 547.494 Q77.9642 538.744 81.0197 534.16 Q84.0984 529.554 89.9086 529.554 Z" fill="#000000" fill-rule="evenodd" fill-opacity="1" /><path clip-path="url(#clip450)" d="M 0 0 M120.07 533.258 Q116.459 533.258 114.631 536.822 Q112.825 540.364 112.825 547.494 Q112.825 554.6 114.631 558.165 Q116.459 561.707 120.07 561.707 Q123.705 561.707 125.51 558.165 Q127.339 554.6 127.339 547.494 Q127.339 540.364 125.51 536.822 Q123.705 533.258 120.07 533.258 M120.07 529.554 Q125.881 529.554 128.936 534.16 Q132.015 538.744 132.015 547.494 Q132.015 556.22 128.936 560.827 Q125.881 565.41 120.07 565.41 Q114.26 565.41 111.182 560.827 Q108.126 556.22 108.126 547.494 Q108.126 538.744 111.182 534.16 Q114.26 529.554 120.07 529.554 Z" fill="#000000" fill-rule="evenodd" fill-opacity="1" /><path clip-path="url(#clip450)" d="M 0 0 M150.232 533.258 Q146.621 533.258 144.793 536.822 Q142.987 540.364 142.987 547.494 Q142.987 554.6 144.793 558.165 Q146.621 561.707 150.232 561.707 Q153.867 561.707 155.672 558.165 Q157.501 554.6 157.501 547.494 Q157.501 540.364 155.672 536.822 Q153.867 533.258 150.232 533.258 M150.232 529.554 Q156.042 529.554 159.098 534.16 Q162.177 538.744 162.177 547.494 Q162.177 556.22 159.098 560.827 Q156.042 565.41 150.232 565.41 Q144.422 565.41 141.343 560.827 Q138.288 556.22 138.288 547.494 Q138.288 538.744 141.343 534.16 Q144.422 529.554 150.232 529.554 Z" fill="#000000" fill-rule="evenodd" fill-opacity="1" /><path clip-path="url(#clip450)" d="M 0 0 M62.5939 232.036 L50.7884 250.485 L62.5939 250.485 L62.5939 232.036 M61.367 227.962 L67.2466 227.962 L67.2466 250.485 L72.1772 250.485 L72.1772 254.373 L67.2466 254.373 L67.2466 262.522 L62.5939 262.522 L62.5939 254.373 L46.9921 254.373 L46.9921 249.86 L61.367 227.962 Z" fill="#000000" fill-rule="evenodd" fill-opacity="1" /><path clip-path="url(#clip450)" d="M 0 0 M89.9086 231.04 Q86.2975 231.04 84.4688 234.605 Q82.6632 238.147 82.6632 245.276 Q82.6632 252.383 84.4688 255.947 Q86.2975 259.489 89.9086 259.489 Q93.5428 259.489 95.3483 255.947 Q97.177 252.383 97.177 245.276 Q97.177 238.147 95.3483 234.605 Q93.5428 231.04 89.9086 231.04 M89.9086 227.337 Q95.7187 227.337 98.7743 231.943 Q101.853 236.526 101.853 245.276 Q101.853 254.003 98.7743 258.61 Q95.7187 263.193 89.9086 263.193 Q84.0984 263.193 81.0197 258.61 Q77.9642 254.003 77.9642 245.276 Q77.9642 236.526 81.0197 231.943 Q84.0984 227.337 89.9086 227.337 Z" fill="#000000" fill-rule="evenodd" fill-opacity="1" /><path clip-path="url(#clip450)" d="M 0 0 M120.07 231.04 Q116.459 231.04 114.631 234.605 Q112.825 238.147 112.825 245.276 Q112.825 252.383 114.631 255.947 Q116.459 259.489 120.07 259.489 Q123.705 259.489 125.51 255.947 Q127.339 252.383 127.339 245.276 Q127.339 238.147 125.51 234.605 Q123.705 231.04 120.07 231.04 M120.07 227.337 Q125.881 227.337 128.936 231.943 Q132.015 236.526 132.015 245.276 Q132.015 254.003 128.936 258.61 Q125.881 263.193 120.07 263.193 Q114.26 263.193 111.182 258.61 Q108.126 254.003 108.126 245.276 Q108.126 236.526 111.182 231.943 Q114.26 227.337 120.07 227.337 Z" fill="#000000" fill-rule="evenodd" fill-opacity="1" /><path clip-path="url(#clip450)" d="M 0 0 M150.232 231.04 Q146.621 231.04 144.793 234.605 Q142.987 238.147 142.987 245.276 Q142.987 252.383 144.793 255.947 Q146.621 259.489 150.232 259.489 Q153.867 259.489 155.672 255.947 Q157.501 252.383 157.501 245.276 Q157.501 238.147 155.672 234.605 Q153.867 231.04 150.232 231.04 M150.232 227.337 Q156.042 227.337 159.098 231.943 Q162.177 236.526 162.177 245.276 Q162.177 254.003 159.098 258.61 Q156.042 263.193 150.232 263.193 Q144.422 263.193 141.343 258.61 Q138.288 254.003 138.288 245.276 Q138.288 236.526 141.343 231.943 Q144.422 227.337 150.232 227.337 Z" fill="#000000" fill-rule="evenodd" fill-opacity="1" /><polyline clip-path="url(#clip452)" style="stroke:#009af9; stroke-width:8; stroke-opacity:1; fill:none" points="
  293.457,1454.11 293.457,1418.15 361.165,1418.15 361.165,1420.26 428.873,1420.26 428.873,1416.64 496.581,1416.64 496.581,1419.05 564.288,1419.05 564.288,1422.08 
  631.996,1422.08 631.996,1420.87 699.704,1420.87 699.704,1414.82 767.412,1414.82 767.412,1414.52 835.119,1414.52 835.119,1415.43 902.827,1415.43 902.827,1418.15 
  970.535,1418.15 970.535,1412.1 1038.24,1412.1 1038.24,1408.78 1105.95,1408.78 1105.95,1410.89 1173.66,1410.89 1173.66,1411.5 1241.37,1411.5 1241.37,1403.04 
  1309.07,1403.04 1309.07,1389.44 1376.78,1389.44 1376.78,1347.43 1444.49,1347.43 1444.49,1132.55 1512.2,1132.55 1512.2,746.318 1579.9,746.318 1579.9,236.175 
  1647.61,236.175 1647.61,104.71 1715.32,104.71 1715.32,457.096 1783.03,457.096 1783.03,968.75 1850.74,968.75 1850.74,1296.66 1918.44,1296.66 1918.44,1411.5 
  1986.15,1411.5 1986.15,1431.14 2053.86,1431.14 2053.86,1426.91 2121.57,1426.91 2121.57,1422.98 2189.27,1422.98 2189.27,1424.8 2256.98,1424.8 2256.98,1427.82 
  2324.69,1427.82 2324.69,1435.68 2392.4,1435.68 2392.4,1432.05 2460.11,1432.05 2460.11,1427.82 2527.81,1427.82 2527.81,1426.31 2595.52,1426.31 2595.52,1425.7 
  2663.23,1425.7 2663.23,1427.82 2730.94,1427.82 2730.94,1431.75 2798.64,1431.75 2798.64,1428.42 2866.35,1428.42 2866.35,1427.21 2934.06,1427.21 2934.06,1432.96 
  3001.77,1432.96 3001.77,1430.84 3069.48,1430.84 3069.48,1454.11 
  "/>
<polyline clip-path="url(#clip452)" style="stroke:#e26f46; stroke-width:8; stroke-opacity:1; fill:none" points="
  293.457,1422.07 306.74,1422.07 320.022,1422.07 333.304,1422.07 346.587,1422.07 359.869,1422.07 373.152,1422.07 386.434,1422.07 399.716,1422.07 412.999,1422.07 
  426.281,1422.07 439.563,1422.07 452.846,1422.07 466.128,1422.07 479.411,1422.07 492.693,1422.07 505.975,1422.07 519.258,1422.07 532.54,1422.07 545.823,1422.07 
  559.105,1422.07 572.387,1422.07 585.67,1422.07 598.952,1422.07 612.234,1422.07 625.517,1422.07 638.799,1422.07 652.082,1422.07 665.364,1422.07 678.646,1422.07 
  691.929,1422.07 705.211,1422.07 718.494,1422.07 731.776,1422.07 745.058,1422.07 758.341,1422.07 771.623,1422.07 784.905,1422.07 798.188,1422.07 811.47,1422.07 
  824.753,1422.07 838.035,1422.07 851.317,1422.07 864.6,1422.07 877.882,1422.07 891.164,1422.07 904.447,1422.07 917.729,1422.07 931.012,1422.07 944.294,1422.07 
  957.576,1422.07 970.859,1422.07 984.141,1422.07 997.424,1422.07 1010.71,1422.07 1023.99,1422.07 1037.27,1422.07 1050.55,1422.07 1063.84,1422.07 1077.12,1422.07 
  1090.4,1422.07 1103.68,1422.07 1116.97,1422.07 1130.25,1422.07 1143.53,1422.07 1156.81,1422.06 1170.09,1422.05 1183.38,1422.04 1196.66,1422.01 1209.94,1421.97 
  1223.22,1421.9 1236.51,1421.77 1249.79,1421.57 1263.07,1421.25 1276.35,1420.73 1289.64,1419.94 1302.92,1418.72 1316.2,1416.89 1329.48,1414.21 1342.77,1410.32 
  1356.05,1404.8 1369.33,1397.09 1382.61,1386.53 1395.9,1372.32 1409.18,1353.56 1422.46,1329.27 1435.74,1298.4 1449.02,1259.94 1462.31,1212.97 1475.59,1156.77 
  1488.87,1090.92 1502.15,1015.44 1515.44,930.849 1528.72,838.297 1542,739.565 1555.28,637.084 1568.57,533.866 1581.85,433.387 1595.13,339.399 1608.41,255.718 
  1621.7,185.959 1634.98,133.288 1648.26,100.178 1661.54,88.2208 1674.83,97.9973 1688.11,129.032 1701.39,179.831 1714.67,248.002 1727.95,330.44 1741.24,423.56 
  1754.52,523.559 1767.8,626.664 1781.08,729.364 1794.37,828.594 1807.65,921.861 1820.93,1007.31 1834.21,1083.75 1847.5,1150.57 1860.78,1207.74 1874.06,1255.61 
  1887.34,1294.89 1900.63,1326.48 1913.91,1351.38 1927.19,1370.65 1940.47,1385.27 1953.76,1396.16 1967.04,1404.13 1980.32,1409.85 1993.6,1413.88 2006.88,1416.67 
  2020.17,1418.57 2033.45,1419.83 2046.73,1420.67 2060.01,1421.2 2073.3,1421.54 2086.58,1421.76 2099.86,1421.89 2113.14,1421.96 2126.43,1422.01 2139.71,1422.04 
  2152.99,1422.05 2166.27,1422.06 2179.56,1422.07 2192.84,1422.07 2206.12,1422.07 2219.4,1422.07 2232.69,1422.07 2245.97,1422.07 2259.25,1422.07 2272.53,1422.07 
  2285.81,1422.07 2299.1,1422.07 2312.38,1422.07 2325.66,1422.07 2338.94,1422.07 2352.23,1422.07 2365.51,1422.07 2378.79,1422.07 2392.07,1422.07 2405.36,1422.07 
  2418.64,1422.07 2431.92,1422.07 2445.2,1422.07 2458.49,1422.07 2471.77,1422.07 2485.05,1422.07 2498.33,1422.07 2511.62,1422.07 2524.9,1422.07 2538.18,1422.07 
  2551.46,1422.07 2564.74,1422.07 2578.03,1422.07 2591.31,1422.07 2604.59,1422.07 2617.87,1422.07 2631.16,1422.07 2644.44,1422.07 2657.72,1422.07 2671,1422.07 
  2684.29,1422.07 2697.57,1422.07 2710.85,1422.07 2724.13,1422.07 2737.42,1422.07 2750.7,1422.07 2763.98,1422.07 2777.26,1422.07 2790.55,1422.07 2803.83,1422.07 
  2817.11,1422.07 2830.39,1422.07 2843.67,1422.07 2856.96,1422.07 2870.24,1422.07 2883.52,1422.07 2896.8,1422.07 2910.09,1422.07 2923.37,1422.07 2936.65,1422.07 
  2949.93,1422.07 2963.22,1422.07 2976.5,1422.07 2989.78,1422.07 3003.06,1422.07 3016.35,1422.07 3029.63,1422.07 3042.91,1422.07 3056.19,1422.07 3069.48,1422.07 
  
  "/>
<path clip-path="url(#clip450)" d="
M2505.15 276.946 L3054.67 276.946 L3054.67 95.5056 L2505.15 95.5056  Z
  " fill="#ffffff" fill-rule="evenodd" fill-opacity="1"/>
<polyline clip-path="url(#clip450)" style="stroke:#000000; stroke-width:4; stroke-opacity:1; fill:none" points="
  2505.15,276.946 3054.67,276.946 3054.67,95.5056 2505.15,95.5056 2505.15,276.946 
  "/>
<polyline clip-path="url(#clip450)" style="stroke:#009af9; stroke-width:4; stroke-opacity:1; fill:none" points="
  2537.84,155.986 2734.02,155.986 
  "/>
<path clip-path="url(#clip450)" d="M 0 0 M2788.96 139.84 L2788.96 144.4 Q2786.29 143.127 2783.93 142.502 Q2781.57 141.877 2779.37 141.877 Q2775.55 141.877 2773.47 143.358 Q2771.41 144.84 2771.41 147.571 Q2771.41 149.863 2772.78 151.043 Q2774.16 152.201 2778.01 152.918 L2780.83 153.497 Q2786.06 154.493 2788.54 157.016 Q2791.04 159.516 2791.04 163.729 Q2791.04 168.752 2787.66 171.344 Q2784.3 173.937 2777.8 173.937 Q2775.35 173.937 2772.57 173.381 Q2769.81 172.826 2766.85 171.738 L2766.85 166.923 Q2769.7 168.52 2772.43 169.33 Q2775.16 170.141 2777.8 170.141 Q2781.8 170.141 2783.98 168.567 Q2786.16 166.992 2786.16 164.076 Q2786.16 161.53 2784.58 160.094 Q2783.03 158.659 2779.47 157.942 L2776.62 157.386 Q2771.39 156.344 2769.05 154.122 Q2766.71 151.9 2766.71 147.942 Q2766.71 143.358 2769.93 140.719 Q2773.17 138.081 2778.84 138.081 Q2781.27 138.081 2783.79 138.52 Q2786.32 138.96 2788.96 139.84 Z" fill="#000000" fill-rule="evenodd" fill-opacity="1" /><path clip-path="url(#clip450)" d="M 0 0 M2802.27 169.377 L2802.27 183.127 L2797.98 183.127 L2797.98 147.34 L2802.27 147.34 L2802.27 151.275 Q2803.61 148.96 2805.65 147.849 Q2807.71 146.715 2810.55 146.715 Q2815.28 146.715 2818.22 150.465 Q2821.18 154.215 2821.18 160.326 Q2821.18 166.437 2818.22 170.187 Q2815.28 173.937 2810.55 173.937 Q2807.71 173.937 2805.65 172.826 Q2803.61 171.691 2802.27 169.377 M2816.76 160.326 Q2816.76 155.627 2814.81 152.965 Q2812.89 150.28 2809.51 150.28 Q2806.13 150.28 2804.19 152.965 Q2802.27 155.627 2802.27 160.326 Q2802.27 165.025 2804.19 167.71 Q2806.13 170.372 2809.51 170.372 Q2812.89 170.372 2814.81 167.71 Q2816.76 165.025 2816.76 160.326 Z" fill="#000000" fill-rule="evenodd" fill-opacity="1" /><path clip-path="url(#clip450)" d="M 0 0 M2850.41 159.238 L2850.41 161.321 L2830.83 161.321 Q2831.11 165.719 2833.47 168.034 Q2835.85 170.326 2840.09 170.326 Q2842.54 170.326 2844.84 169.724 Q2847.15 169.122 2849.42 167.918 L2849.42 171.946 Q2847.13 172.918 2844.72 173.428 Q2842.31 173.937 2839.84 173.937 Q2833.63 173.937 2830 170.326 Q2826.39 166.715 2826.39 160.557 Q2826.39 154.192 2829.81 150.465 Q2833.26 146.715 2839.09 146.715 Q2844.33 146.715 2847.36 150.094 Q2850.41 153.451 2850.41 159.238 M2846.16 157.988 Q2846.11 154.493 2844.19 152.409 Q2842.29 150.326 2839.14 150.326 Q2835.58 150.326 2833.42 152.34 Q2831.29 154.354 2830.97 158.011 L2846.16 157.988 Z" fill="#000000" fill-rule="evenodd" fill-opacity="1" /><path clip-path="url(#clip450)" d="M 0 0 M2876.06 148.335 L2876.06 152.317 Q2874.26 151.321 2872.43 150.835 Q2870.62 150.326 2868.77 150.326 Q2864.63 150.326 2862.34 152.965 Q2860.04 155.58 2860.04 160.326 Q2860.04 165.071 2862.34 167.71 Q2864.63 170.326 2868.77 170.326 Q2870.62 170.326 2872.43 169.84 Q2874.26 169.33 2876.06 168.335 L2876.06 172.27 Q2874.28 173.104 2872.36 173.52 Q2870.46 173.937 2868.31 173.937 Q2862.45 173.937 2859 170.256 Q2855.55 166.576 2855.55 160.326 Q2855.55 153.983 2859.03 150.349 Q2862.52 146.715 2868.59 146.715 Q2870.55 146.715 2872.43 147.131 Q2874.3 147.525 2876.06 148.335 Z" fill="#000000" fill-rule="evenodd" fill-opacity="1" /><path clip-path="url(#clip450)" d="M 0 0 M2887.68 139.979 L2887.68 147.34 L2896.46 147.34 L2896.46 150.65 L2887.68 150.65 L2887.68 164.724 Q2887.68 167.895 2888.54 168.798 Q2889.42 169.701 2892.08 169.701 L2896.46 169.701 L2896.46 173.266 L2892.08 173.266 Q2887.15 173.266 2885.28 171.437 Q2883.4 169.585 2883.4 164.724 L2883.4 150.65 L2880.28 150.65 L2880.28 147.34 L2883.4 147.34 L2883.4 139.979 L2887.68 139.979 Z" fill="#000000" fill-rule="evenodd" fill-opacity="1" /><path clip-path="url(#clip450)" d="M 0 0 M2917.08 151.321 Q2916.36 150.905 2915.51 150.719 Q2914.67 150.511 2913.65 150.511 Q2910.04 150.511 2908.1 152.872 Q2906.18 155.21 2906.18 159.608 L2906.18 173.266 L2901.9 173.266 L2901.9 147.34 L2906.18 147.34 L2906.18 151.368 Q2907.52 149.006 2909.67 147.872 Q2911.83 146.715 2914.9 146.715 Q2915.34 146.715 2915.88 146.784 Q2916.41 146.831 2917.06 146.946 L2917.08 151.321 Z" fill="#000000" fill-rule="evenodd" fill-opacity="1" /><path clip-path="url(#clip450)" d="M 0 0 M2921.11 163.034 L2921.11 147.34 L2925.37 147.34 L2925.37 162.872 Q2925.37 166.553 2926.8 168.404 Q2928.24 170.233 2931.11 170.233 Q2934.56 170.233 2936.55 168.034 Q2938.56 165.835 2938.56 162.039 L2938.56 147.34 L2942.82 147.34 L2942.82 173.266 L2938.56 173.266 L2938.56 169.284 Q2937.01 171.645 2934.95 172.803 Q2932.91 173.937 2930.21 173.937 Q2925.74 173.937 2923.42 171.159 Q2921.11 168.381 2921.11 163.034 M2931.83 146.715 L2931.83 146.715 Z" fill="#000000" fill-rule="evenodd" fill-opacity="1" /><path clip-path="url(#clip450)" d="M 0 0 M2971.78 152.317 Q2973.38 149.446 2975.6 148.081 Q2977.82 146.715 2980.83 146.715 Q2984.88 146.715 2987.08 149.562 Q2989.28 152.386 2989.28 157.617 L2989.28 173.266 L2985 173.266 L2985 157.756 Q2985 154.03 2983.68 152.224 Q2982.36 150.418 2979.65 150.418 Q2976.34 150.418 2974.42 152.618 Q2972.5 154.817 2972.5 158.613 L2972.5 173.266 L2968.21 173.266 L2968.21 157.756 Q2968.21 154.006 2966.9 152.224 Q2965.58 150.418 2962.82 150.418 Q2959.56 150.418 2957.64 152.641 Q2955.71 154.84 2955.71 158.613 L2955.71 173.266 L2951.43 173.266 L2951.43 147.34 L2955.71 147.34 L2955.71 151.368 Q2957.17 148.983 2959.21 147.849 Q2961.25 146.715 2964.05 146.715 Q2966.87 146.715 2968.84 148.15 Q2970.83 149.585 2971.78 152.317 Z" fill="#000000" fill-rule="evenodd" fill-opacity="1" /><polyline clip-path="url(#clip450)" style="stroke:#e26f46; stroke-width:4; stroke-opacity:1; fill:none" points="
  2537.84,216.466 2734.02,216.466 
  "/>
<path clip-path="url(#clip450)" d="M 0 0 M2766.71 199.186 L2786.57 199.186 L2786.57 203.121 L2771.39 203.121 L2771.39 213.306 L2785.09 213.306 L2785.09 217.241 L2771.39 217.241 L2771.39 233.746 L2766.71 233.746 L2766.71 199.186 Z" fill="#000000" fill-rule="evenodd" fill-opacity="1" /><path clip-path="url(#clip450)" d="M 0 0 M2790.35 207.82 L2794.6 207.82 L2794.6 233.746 L2790.35 233.746 L2790.35 207.82 M2790.35 197.727 L2794.6 197.727 L2794.6 203.121 L2790.35 203.121 L2790.35 197.727 Z" fill="#000000" fill-rule="evenodd" fill-opacity="1" /><path clip-path="url(#clip450)" d="M 0 0 M2807.73 200.459 L2807.73 207.82 L2816.5 207.82 L2816.5 211.13 L2807.73 211.13 L2807.73 225.204 Q2807.73 228.375 2808.59 229.278 Q2809.47 230.181 2812.13 230.181 L2816.5 230.181 L2816.5 233.746 L2812.13 233.746 Q2807.2 233.746 2805.32 231.917 Q2803.45 230.065 2803.45 225.204 L2803.45 211.13 L2800.32 211.13 L2800.32 207.82 L2803.45 207.82 L2803.45 200.459 L2807.73 200.459 Z" fill="#000000" fill-rule="evenodd" fill-opacity="1" /></svg>
