<?xml version="1.0" encoding="utf-8"?>
<svg xmlns="http://www.w3.org/2000/svg" xmlns:xlink="http://www.w3.org/1999/xlink" width="800" height="400" viewBox="0 0 3200 1600">
<defs>
  <clipPath id="clip420">
    <rect x="0" y="0" width="3200" height="1600"/>
  </clipPath>
</defs>
<path clip-path="url(#clip420)" d="
M0 1600 L3200 1600 L3200 0 L0 0  Z
  " fill="#ffffff" fill-rule="evenodd" fill-opacity="1"/>
<defs>
  <clipPath id="clip421">
    <rect x="640" y="0" width="2241" height="1600"/>
  </clipPath>
</defs>
<path clip-path="url(#clip420)" d="
M210.177 1495.09 L3152.76 1495.09 L3152.76 47.2441 L210.177 47.2441  Z
  " fill="#ffffff" fill-rule="evenodd" fill-opacity="1"/>
<defs>
  <clipPath id="clip422">
    <rect x="210" y="47" width="2944" height="1449"/>
  </clipPath>
</defs>
<polyline clip-path="url(#clip422)" style="stroke:#000000; stroke-width:2; stroke-opacity:0.1; fill:none" points="
  496.581,1495.09 496.581,47.2441 
  "/>
<polyline clip-path="url(#clip422)" style="stroke:#000000; stroke-width:2; stroke-opacity:0.1; fill:none" points="
  1173.66,1495.09 1173.66,47.2441 
  "/>
<polyline clip-path="url(#clip422)" style="stroke:#000000; stroke-width:2; stroke-opacity:0.1; fill:none" points="
  1850.74,1495.09 1850.74,47.2441 
  "/>
<polyline clip-path="url(#clip422)" style="stroke:#000000; stroke-width:2; stroke-opacity:0.1; fill:none" points="
  2527.81,1495.09 2527.81,47.2441 
  "/>
<polyline clip-path="url(#clip420)" style="stroke:#000000; stroke-width:4; stroke-opacity:1; fill:none" points="
  210.177,1495.09 3152.76,1495.09 
  "/>
<polyline clip-path="url(#clip420)" style="stroke:#000000; stroke-width:4; stroke-opacity:1; fill:none" points="
  496.581,1495.09 496.581,1477.71 
  "/>
<polyline clip-path="url(#clip420)" style="stroke:#000000; stroke-width:4; stroke-opacity:1; fill:none" points="
  1173.66,1495.09 1173.66,1477.71 
  "/>
<polyline clip-path="url(#clip420)" style="stroke:#000000; stroke-width:4; stroke-opacity:1; fill:none" points="
  1850.74,1495.09 1850.74,1477.71 
  "/>
<polyline clip-path="url(#clip420)" style="stroke:#000000; stroke-width:4; stroke-opacity:1; fill:none" points="
  2527.81,1495.09 2527.81,1477.71 
  "/>
<path clip-path="url(#clip420)" d="M 0 0 M410.944 1558.22 L418.583 1558.22 L418.583 1531.86 L410.273 1533.53 L410.273 1529.27 L418.537 1527.6 L423.213 1527.6 L423.213 1558.22 L430.852 1558.22 L430.852 1562.16 L410.944 1562.16 L410.944 1558.22 Z" fill="#000000" fill-rule="evenodd" fill-opacity="1" /><path clip-path="url(#clip420)" d="M 0 0 M444.324 1558.22 L460.643 1558.22 L460.643 1562.16 L438.699 1562.16 L438.699 1558.22 Q441.361 1555.47 445.944 1550.84 Q450.551 1546.19 451.731 1544.85 Q453.977 1542.32 454.856 1540.59 Q455.759 1538.83 455.759 1537.14 Q455.759 1534.38 453.815 1532.65 Q451.893 1530.91 448.791 1530.91 Q446.592 1530.91 444.139 1531.67 Q441.708 1532.44 438.93 1533.99 L438.93 1529.27 Q441.754 1528.13 444.208 1527.55 Q446.662 1526.97 448.699 1526.97 Q454.069 1526.97 457.264 1529.66 Q460.458 1532.35 460.458 1536.84 Q460.458 1538.97 459.648 1540.89 Q458.861 1542.78 456.754 1545.38 Q456.176 1546.05 453.074 1549.27 Q449.972 1552.46 444.324 1558.22 Z" fill="#000000" fill-rule="evenodd" fill-opacity="1" /><path clip-path="url(#clip420)" d="M 0 0 M480.458 1545.75 Q477.125 1545.75 475.203 1547.53 Q473.305 1549.31 473.305 1552.44 Q473.305 1555.56 475.203 1557.35 Q477.125 1559.13 480.458 1559.13 Q483.791 1559.13 485.713 1557.35 Q487.634 1555.54 487.634 1552.44 Q487.634 1549.31 485.713 1547.53 Q483.814 1545.75 480.458 1545.75 M475.782 1543.76 Q472.773 1543.02 471.083 1540.96 Q469.416 1538.9 469.416 1535.93 Q469.416 1531.79 472.356 1529.38 Q475.319 1526.97 480.458 1526.97 Q485.62 1526.97 488.56 1529.38 Q491.5 1531.79 491.5 1535.93 Q491.5 1538.9 489.81 1540.96 Q488.143 1543.02 485.157 1543.76 Q488.537 1544.54 490.412 1546.84 Q492.31 1549.13 492.31 1552.44 Q492.31 1557.46 489.231 1560.15 Q486.175 1562.83 480.458 1562.83 Q474.74 1562.83 471.662 1560.15 Q468.606 1557.46 468.606 1552.44 Q468.606 1549.13 470.504 1546.84 Q472.402 1544.54 475.782 1543.76 M474.069 1536.37 Q474.069 1539.06 475.736 1540.56 Q477.426 1542.07 480.458 1542.07 Q483.467 1542.07 485.157 1540.56 Q486.87 1539.06 486.87 1536.37 Q486.87 1533.69 485.157 1532.18 Q483.467 1530.68 480.458 1530.68 Q477.426 1530.68 475.736 1532.18 Q474.069 1533.69 474.069 1536.37 Z" fill="#000000" fill-rule="evenodd" fill-opacity="1" /><path clip-path="url(#clip420)" d="M 0 0 M510.62 1530.68 Q507.009 1530.68 505.18 1534.24 Q503.374 1537.79 503.374 1544.91 Q503.374 1552.02 505.18 1555.59 Q507.009 1559.13 510.62 1559.13 Q514.254 1559.13 516.06 1555.59 Q517.888 1552.02 517.888 1544.91 Q517.888 1537.79 516.06 1534.24 Q514.254 1530.68 510.62 1530.68 M510.62 1526.97 Q516.43 1526.97 519.485 1531.58 Q522.564 1536.16 522.564 1544.91 Q522.564 1553.64 519.485 1558.25 Q516.43 1562.83 510.62 1562.83 Q504.81 1562.83 501.731 1558.25 Q498.675 1553.64 498.675 1544.91 Q498.675 1536.16 501.731 1531.58 Q504.81 1526.97 510.62 1526.97 Z" fill="#000000" fill-rule="evenodd" fill-opacity="1" /><path clip-path="url(#clip420)" d="M 0 0 M540.782 1530.68 Q537.171 1530.68 535.342 1534.24 Q533.536 1537.79 533.536 1544.91 Q533.536 1552.02 535.342 1555.59 Q537.171 1559.13 540.782 1559.13 Q544.416 1559.13 546.221 1555.59 Q548.05 1552.02 548.05 1544.91 Q548.05 1537.79 546.221 1534.24 Q544.416 1530.68 540.782 1530.68 M540.782 1526.97 Q546.592 1526.97 549.647 1531.58 Q552.726 1536.16 552.726 1544.91 Q552.726 1553.64 549.647 1558.25 Q546.592 1562.83 540.782 1562.83 Q534.972 1562.83 531.893 1558.25 Q528.837 1553.64 528.837 1544.91 Q528.837 1536.16 531.893 1531.58 Q534.972 1526.97 540.782 1526.97 Z" fill="#000000" fill-rule="evenodd" fill-opacity="1" /><path clip-path="url(#clip420)" d="M 0 0 M570.944 1530.68 Q567.332 1530.68 565.504 1534.24 Q563.698 1537.79 563.698 1544.91 Q563.698 1552.02 565.504 1555.59 Q567.332 1559.13 570.944 1559.13 Q574.578 1559.13 576.383 1555.59 Q578.212 1552.02 578.212 1544.91 Q578.212 1537.79 576.383 1534.24 Q574.578 1530.68 570.944 1530.68 M570.944 1526.97 Q576.754 1526.97 579.809 1531.58 Q582.888 1536.16 582.888 1544.91 Q582.888 1553.64 579.809 1558.25 Q576.754 1562.83 570.944 1562.83 Q565.133 1562.83 562.055 1558.25 Q558.999 1553.64 558.999 1544.91 Q558.999 1536.16 562.055 1531.58 Q565.133 1526.97 570.944 1526.97 Z" fill="#000000" fill-rule="evenodd" fill-opacity="1" /><path clip-path="url(#clip420)" d="M 0 0 M1088.02 1558.22 L1095.66 1558.22 L1095.66 1531.86 L1087.35 1533.53 L1087.35 1529.27 L1095.61 1527.6 L1100.29 1527.6 L1100.29 1558.22 L1107.93 1558.22 L1107.93 1562.16 L1088.02 1562.16 L1088.02 1558.22 Z" fill="#000000" fill-rule="evenodd" fill-opacity="1" /><path clip-path="url(#clip420)" d="M 0 0 M1121.4 1558.22 L1137.72 1558.22 L1137.72 1562.16 L1115.78 1562.16 L1115.78 1558.22 Q1118.44 1555.47 1123.02 1550.84 Q1127.63 1546.19 1128.81 1544.85 Q1131.05 1542.32 1131.93 1540.59 Q1132.84 1538.83 1132.84 1537.14 Q1132.84 1534.38 1130.89 1532.65 Q1128.97 1530.91 1125.87 1530.91 Q1123.67 1530.91 1121.22 1531.67 Q1118.79 1532.44 1116.01 1533.99 L1116.01 1529.27 Q1118.83 1528.13 1121.29 1527.55 Q1123.74 1526.97 1125.78 1526.97 Q1131.15 1526.97 1134.34 1529.66 Q1137.54 1532.35 1137.54 1536.84 Q1137.54 1538.97 1136.73 1540.89 Q1135.94 1542.78 1133.83 1545.38 Q1133.25 1546.05 1130.15 1549.27 Q1127.05 1552.46 1121.4 1558.22 Z" fill="#000000" fill-rule="evenodd" fill-opacity="1" /><path clip-path="url(#clip420)" d="M 0 0 M1147.67 1561.44 L1147.67 1557.18 Q1149.43 1558.02 1151.24 1558.46 Q1153.04 1558.9 1154.78 1558.9 Q1159.41 1558.9 1161.84 1555.79 Q1164.29 1552.67 1164.64 1546.33 Q1163.3 1548.32 1161.24 1549.38 Q1159.18 1550.45 1156.68 1550.45 Q1151.49 1550.45 1148.46 1547.32 Q1145.45 1544.17 1145.45 1538.73 Q1145.45 1533.41 1148.6 1530.19 Q1151.75 1526.97 1156.98 1526.97 Q1162.98 1526.97 1166.12 1531.58 Q1169.29 1536.16 1169.29 1544.91 Q1169.29 1553.09 1165.41 1557.97 Q1161.54 1562.83 1154.99 1562.83 Q1153.23 1562.83 1151.42 1562.48 Q1149.62 1562.14 1147.67 1561.44 M1156.98 1546.79 Q1160.13 1546.79 1161.96 1544.64 Q1163.81 1542.48 1163.81 1538.73 Q1163.81 1535.01 1161.96 1532.85 Q1160.13 1530.68 1156.98 1530.68 Q1153.83 1530.68 1151.98 1532.85 Q1150.15 1535.01 1150.15 1538.73 Q1150.15 1542.48 1151.98 1544.64 Q1153.83 1546.79 1156.98 1546.79 Z" fill="#000000" fill-rule="evenodd" fill-opacity="1" /><path clip-path="url(#clip420)" d="M 0 0 M1187.7 1530.68 Q1184.09 1530.68 1182.26 1534.24 Q1180.45 1537.79 1180.45 1544.91 Q1180.45 1552.02 1182.26 1555.59 Q1184.09 1559.13 1187.7 1559.13 Q1191.33 1559.13 1193.14 1555.59 Q1194.97 1552.02 1194.97 1544.91 Q1194.97 1537.79 1193.14 1534.24 Q1191.33 1530.68 1187.7 1530.68 M1187.7 1526.97 Q1193.51 1526.97 1196.56 1531.58 Q1199.64 1536.16 1199.64 1544.91 Q1199.64 1553.64 1196.56 1558.25 Q1193.51 1562.83 1187.7 1562.83 Q1181.89 1562.83 1178.81 1558.25 Q1175.75 1553.64 1175.75 1544.91 Q1175.75 1536.16 1178.81 1531.58 Q1181.89 1526.97 1187.7 1526.97 Z" fill="#000000" fill-rule="evenodd" fill-opacity="1" /><path clip-path="url(#clip420)" d="M 0 0 M1217.86 1530.68 Q1214.25 1530.68 1212.42 1534.24 Q1210.61 1537.79 1210.61 1544.91 Q1210.61 1552.02 1212.42 1555.59 Q1214.25 1559.13 1217.86 1559.13 Q1221.49 1559.13 1223.3 1555.59 Q1225.13 1552.02 1225.13 1544.91 Q1225.13 1537.79 1223.3 1534.24 Q1221.49 1530.68 1217.86 1530.68 M1217.86 1526.97 Q1223.67 1526.97 1226.72 1531.58 Q1229.8 1536.16 1229.8 1544.91 Q1229.8 1553.64 1226.72 1558.25 Q1223.67 1562.83 1217.86 1562.83 Q1212.05 1562.83 1208.97 1558.25 Q1205.91 1553.64 1205.91 1544.91 Q1205.91 1536.16 1208.97 1531.58 Q1212.05 1526.97 1217.86 1526.97 Z" fill="#000000" fill-rule="evenodd" fill-opacity="1" /><path clip-path="url(#clip420)" d="M 0 0 M1248.02 1530.68 Q1244.41 1530.68 1242.58 1534.24 Q1240.78 1537.79 1240.78 1544.91 Q1240.78 1552.02 1242.58 1555.59 Q1244.41 1559.13 1248.02 1559.13 Q1251.66 1559.13 1253.46 1555.59 Q1255.29 1552.02 1255.29 1544.91 Q1255.29 1537.79 1253.46 1534.24 Q1251.66 1530.68 1248.02 1530.68 M1248.02 1526.97 Q1253.83 1526.97 1256.89 1531.58 Q1259.97 1536.16 1259.97 1544.91 Q1259.97 1553.64 1256.89 1558.25 Q1253.83 1562.83 1248.02 1562.83 Q1242.21 1562.83 1239.13 1558.25 Q1236.08 1553.64 1236.08 1544.91 Q1236.08 1536.16 1239.13 1531.58 Q1242.21 1526.97 1248.02 1526.97 Z" fill="#000000" fill-rule="evenodd" fill-opacity="1" /><path clip-path="url(#clip420)" d="M 0 0 M1765.1 1558.22 L1772.74 1558.22 L1772.74 1531.86 L1764.43 1533.53 L1764.43 1529.27 L1772.69 1527.6 L1777.37 1527.6 L1777.37 1558.22 L1785.01 1558.22 L1785.01 1562.16 L1765.1 1562.16 L1765.1 1558.22 Z" fill="#000000" fill-rule="evenodd" fill-opacity="1" /><path clip-path="url(#clip420)" d="M 0 0 M1808.62 1543.53 Q1811.97 1544.24 1813.85 1546.51 Q1815.75 1548.78 1815.75 1552.11 Q1815.75 1557.23 1812.23 1560.03 Q1808.71 1562.83 1802.23 1562.83 Q1800.05 1562.83 1797.74 1562.39 Q1795.45 1561.97 1792.99 1561.12 L1792.99 1556.6 Q1794.94 1557.74 1797.25 1558.32 Q1799.57 1558.9 1802.09 1558.9 Q1806.49 1558.9 1808.78 1557.16 Q1811.09 1555.42 1811.09 1552.11 Q1811.09 1549.06 1808.94 1547.35 Q1806.81 1545.61 1802.99 1545.61 L1798.97 1545.61 L1798.97 1541.77 L1803.18 1541.77 Q1806.63 1541.77 1808.46 1540.4 Q1810.28 1539.01 1810.28 1536.42 Q1810.28 1533.76 1808.39 1532.35 Q1806.51 1530.91 1802.99 1530.91 Q1801.07 1530.91 1798.87 1531.33 Q1796.67 1531.74 1794.03 1532.62 L1794.03 1528.46 Q1796.7 1527.72 1799.01 1527.35 Q1801.35 1526.97 1803.41 1526.97 Q1808.73 1526.97 1811.84 1529.41 Q1814.94 1531.81 1814.94 1535.93 Q1814.94 1538.8 1813.29 1540.79 Q1811.65 1542.76 1808.62 1543.53 Z" fill="#000000" fill-rule="evenodd" fill-opacity="1" /><path clip-path="url(#clip420)" d="M 0 0 M1834.61 1530.68 Q1831 1530.68 1829.17 1534.24 Q1827.37 1537.79 1827.37 1544.91 Q1827.37 1552.02 1829.17 1555.59 Q1831 1559.13 1834.61 1559.13 Q1838.25 1559.13 1840.05 1555.59 Q1841.88 1552.02 1841.88 1544.91 Q1841.88 1537.79 1840.05 1534.24 Q1838.25 1530.68 1834.61 1530.68 M1834.61 1526.97 Q1840.42 1526.97 1843.48 1531.58 Q1846.56 1536.16 1846.56 1544.91 Q1846.56 1553.64 1843.48 1558.25 Q1840.42 1562.83 1834.61 1562.83 Q1828.8 1562.83 1825.72 1558.25 Q1822.67 1553.64 1822.67 1544.91 Q1822.67 1536.16 1825.72 1531.58 Q1828.8 1526.97 1834.61 1526.97 Z" fill="#000000" fill-rule="evenodd" fill-opacity="1" /><path clip-path="url(#clip420)" d="M 0 0 M1864.77 1530.68 Q1861.16 1530.68 1859.34 1534.24 Q1857.53 1537.79 1857.53 1544.91 Q1857.53 1552.02 1859.34 1555.59 Q1861.16 1559.13 1864.77 1559.13 Q1868.41 1559.13 1870.21 1555.59 Q1872.04 1552.02 1872.04 1544.91 Q1872.04 1537.79 1870.21 1534.24 Q1868.41 1530.68 1864.77 1530.68 M1864.77 1526.97 Q1870.59 1526.97 1873.64 1531.58 Q1876.72 1536.16 1876.72 1544.91 Q1876.72 1553.64 1873.64 1558.25 Q1870.59 1562.83 1864.77 1562.83 Q1858.96 1562.83 1855.89 1558.25 Q1852.83 1553.64 1852.83 1544.91 Q1852.83 1536.16 1855.89 1531.58 Q1858.96 1526.97 1864.77 1526.97 Z" fill="#000000" fill-rule="evenodd" fill-opacity="1" /><path clip-path="url(#clip420)" d="M 0 0 M1894.94 1530.68 Q1891.33 1530.68 1889.5 1534.24 Q1887.69 1537.79 1887.69 1544.91 Q1887.69 1552.02 1889.5 1555.59 Q1891.33 1559.13 1894.94 1559.13 Q1898.57 1559.13 1900.38 1555.59 Q1902.21 1552.02 1902.21 1544.91 Q1902.21 1537.79 1900.38 1534.24 Q1898.57 1530.68 1894.94 1530.68 M1894.94 1526.97 Q1900.75 1526.97 1903.8 1531.58 Q1906.88 1536.16 1906.88 1544.91 Q1906.88 1553.64 1903.8 1558.25 Q1900.75 1562.83 1894.94 1562.83 Q1889.13 1562.83 1886.05 1558.25 Q1882.99 1553.64 1882.99 1544.91 Q1882.99 1536.16 1886.05 1531.58 Q1889.13 1526.97 1894.94 1526.97 Z" fill="#000000" fill-rule="evenodd" fill-opacity="1" /><path clip-path="url(#clip420)" d="M 0 0 M1925.1 1530.68 Q1921.49 1530.68 1919.66 1534.24 Q1917.85 1537.79 1917.85 1544.91 Q1917.85 1552.02 1919.66 1555.59 Q1921.49 1559.13 1925.1 1559.13 Q1928.73 1559.13 1930.54 1555.59 Q1932.37 1552.02 1932.37 1544.91 Q1932.37 1537.79 1930.54 1534.24 Q1928.73 1530.68 1925.1 1530.68 M1925.1 1526.97 Q1930.91 1526.97 1933.96 1531.58 Q1937.04 1536.16 1937.04 1544.91 Q1937.04 1553.64 1933.96 1558.25 Q1930.91 1562.83 1925.1 1562.83 Q1919.29 1562.83 1916.21 1558.25 Q1913.15 1553.64 1913.15 1544.91 Q1913.15 1536.16 1916.21 1531.58 Q1919.29 1526.97 1925.1 1526.97 Z" fill="#000000" fill-rule="evenodd" fill-opacity="1" /><path clip-path="url(#clip420)" d="M 0 0 M2442.18 1558.22 L2449.82 1558.22 L2449.82 1531.86 L2441.51 1533.53 L2441.51 1529.27 L2449.77 1527.6 L2454.45 1527.6 L2454.45 1558.22 L2462.08 1558.22 L2462.08 1562.16 L2442.18 1562.16 L2442.18 1558.22 Z" fill="#000000" fill-rule="evenodd" fill-opacity="1" /><path clip-path="url(#clip420)" d="M 0 0 M2485.7 1543.53 Q2489.05 1544.24 2490.93 1546.51 Q2492.83 1548.78 2492.83 1552.11 Q2492.83 1557.23 2489.31 1560.03 Q2485.79 1562.83 2479.31 1562.83 Q2477.13 1562.83 2474.82 1562.39 Q2472.52 1561.97 2470.07 1561.12 L2470.07 1556.6 Q2472.01 1557.74 2474.33 1558.32 Q2476.64 1558.9 2479.17 1558.9 Q2483.57 1558.9 2485.86 1557.16 Q2488.17 1555.42 2488.17 1552.11 Q2488.17 1549.06 2486.02 1547.35 Q2483.89 1545.61 2480.07 1545.61 L2476.04 1545.61 L2476.04 1541.77 L2480.26 1541.77 Q2483.7 1541.77 2485.53 1540.4 Q2487.36 1539.01 2487.36 1536.42 Q2487.36 1533.76 2485.46 1532.35 Q2483.59 1530.91 2480.07 1530.91 Q2478.15 1530.91 2475.95 1531.33 Q2473.75 1531.74 2471.11 1532.62 L2471.11 1528.46 Q2473.77 1527.72 2476.09 1527.35 Q2478.43 1526.97 2480.49 1526.97 Q2485.81 1526.97 2488.91 1529.41 Q2492.01 1531.81 2492.01 1535.93 Q2492.01 1538.8 2490.37 1540.79 Q2488.73 1542.76 2485.7 1543.53 Z" fill="#000000" fill-rule="evenodd" fill-opacity="1" /><path clip-path="url(#clip420)" d="M 0 0 M2502.5 1558.22 L2510.14 1558.22 L2510.14 1531.86 L2501.83 1533.53 L2501.83 1529.27 L2510.09 1527.6 L2514.77 1527.6 L2514.77 1558.22 L2522.41 1558.22 L2522.41 1562.16 L2502.5 1562.16 L2502.5 1558.22 Z" fill="#000000" fill-rule="evenodd" fill-opacity="1" /><path clip-path="url(#clip420)" d="M 0 0 M2541.85 1530.68 Q2538.24 1530.68 2536.41 1534.24 Q2534.61 1537.79 2534.61 1544.91 Q2534.61 1552.02 2536.41 1555.59 Q2538.24 1559.13 2541.85 1559.13 Q2545.49 1559.13 2547.29 1555.59 Q2549.12 1552.02 2549.12 1544.91 Q2549.12 1537.79 2547.29 1534.24 Q2545.49 1530.68 2541.85 1530.68 M2541.85 1526.97 Q2547.66 1526.97 2550.72 1531.58 Q2553.8 1536.16 2553.8 1544.91 Q2553.8 1553.64 2550.72 1558.25 Q2547.66 1562.83 2541.85 1562.83 Q2536.04 1562.83 2532.96 1558.25 Q2529.91 1553.64 2529.91 1544.91 Q2529.91 1536.16 2532.96 1531.58 Q2536.04 1526.97 2541.85 1526.97 Z" fill="#000000" fill-rule="evenodd" fill-opacity="1" /><path clip-path="url(#clip420)" d="M 0 0 M2572.01 1530.68 Q2568.4 1530.68 2566.57 1534.24 Q2564.77 1537.79 2564.77 1544.91 Q2564.77 1552.02 2566.57 1555.59 Q2568.4 1559.13 2572.01 1559.13 Q2575.65 1559.13 2577.45 1555.59 Q2579.28 1552.02 2579.28 1544.91 Q2579.28 1537.79 2577.45 1534.24 Q2575.65 1530.68 2572.01 1530.68 M2572.01 1526.97 Q2577.82 1526.97 2580.88 1531.58 Q2583.96 1536.16 2583.96 1544.91 Q2583.96 1553.64 2580.88 1558.25 Q2577.82 1562.83 2572.01 1562.83 Q2566.2 1562.83 2563.13 1558.25 Q2560.07 1553.64 2560.07 1544.91 Q2560.07 1536.16 2563.13 1531.58 Q2566.2 1526.97 2572.01 1526.97 Z" fill="#000000" fill-rule="evenodd" fill-opacity="1" /><path clip-path="url(#clip420)" d="M 0 0 M2602.18 1530.68 Q2598.57 1530.68 2596.74 1534.24 Q2594.93 1537.79 2594.93 1544.91 Q2594.93 1552.02 2596.74 1555.59 Q2598.57 1559.13 2602.18 1559.13 Q2605.81 1559.13 2607.62 1555.59 Q2609.44 1552.02 2609.44 1544.91 Q2609.44 1537.79 2607.62 1534.24 Q2605.81 1530.68 2602.18 1530.68 M2602.18 1526.97 Q2607.99 1526.97 2611.04 1531.58 Q2614.12 1536.16 2614.12 1544.91 Q2614.12 1553.64 2611.04 1558.25 Q2607.99 1562.83 2602.18 1562.83 Q2596.37 1562.83 2593.29 1558.25 Q2590.23 1553.64 2590.23 1544.91 Q2590.23 1536.16 2593.29 1531.58 Q2596.37 1526.97 2602.18 1526.97 Z" fill="#000000" fill-rule="evenodd" fill-opacity="1" /><polyline clip-path="url(#clip422)" style="stroke:#000000; stroke-width:2; stroke-opacity:0.1; fill:none" points="
  210.177,1454.11 3152.76,1454.11 
  "/>
<polyline clip-path="url(#clip422)" style="stroke:#000000; stroke-width:2; stroke-opacity:0.1; fill:none" points="
  210.177,1148.2 3152.76,1148.2 
  "/>
<polyline clip-path="url(#clip422)" style="stroke:#000000; stroke-width:2; stroke-opacity:0.1; fill:none" points="
  210.177,842.29 3152.76,842.29 
  "/>
<polyline clip-path="url(#clip422)" style="stroke:#000000; stroke-width:2; stroke-opacity:0.1; fill:none" points="
  210.177,536.38 3152.76,536.38 
  "/>
<polyline clip-path="url(#clip422)" style="stroke:#000000; stroke-width:2; stroke-opacity:0.1; fill:none" points="
  210.177,230.469 3152.76,230.469 
  "/>
<polyline clip-path="url(#clip420)" style="stroke:#000000; stroke-width:4; stroke-opacity:1; fill:none" points="
  210.177,1495.09 210.177,47.2441 
  "/>
<polyline clip-path="url(#clip420)" style="stroke:#000000; stroke-width:4; stroke-opacity:1; fill:none" points="
  210.177,1454.11 245.488,1454.11 
  "/>
<polyline clip-path="url(#clip420)" style="stroke:#000000; stroke-width:4; stroke-opacity:1; fill:none" points="
  210.177,1148.2 245.488,1148.2 
  "/>
<polyline clip-path="url(#clip420)" style="stroke:#000000; stroke-width:4; stroke-opacity:1; fill:none" points="
  210.177,842.29 245.488,842.29 
  "/>
<polyline clip-path="url(#clip420)" style="stroke:#000000; stroke-width:4; stroke-opacity:1; fill:none" points="
  210.177,536.38 245.488,536.38 
  "/>
<polyline clip-path="url(#clip420)" style="stroke:#000000; stroke-width:4; stroke-opacity:1; fill:none" points="
  210.177,230.469 245.488,230.469 
  "/>
<path clip-path="url(#clip420)" d="M 0 0 M150.232 1439.91 Q146.621 1439.91 144.793 1443.47 Q142.987 1447.02 142.987 1454.15 Q142.987 1461.25 144.793 1464.82 Q146.621 1468.36 150.232 1468.36 Q153.867 1468.36 155.672 1464.82 Q157.501 1461.25 157.501 1454.15 Q157.501 1447.02 155.672 1443.47 Q153.867 1439.91 150.232 1439.91 M150.232 1436.21 Q156.042 1436.21 159.098 1440.81 Q162.177 1445.4 162.177 1454.15 Q162.177 1462.87 159.098 1467.48 Q156.042 1472.06 150.232 1472.06 Q144.422 1472.06 141.343 1467.48 Q138.288 1462.87 138.288 1454.15 Q138.288 1445.4 141.343 1440.81 Q144.422 1436.21 150.232 1436.21 Z" fill="#000000" fill-rule="evenodd" fill-opacity="1" /><path clip-path="url(#clip420)" d="M 0 0 M50.5569 1161.55 L58.1958 1161.55 L58.1958 1135.18 L49.8856 1136.85 L49.8856 1132.59 L58.1495 1130.92 L62.8254 1130.92 L62.8254 1161.55 L70.4642 1161.55 L70.4642 1165.48 L50.5569 1165.48 L50.5569 1161.55 Z" fill="#000000" fill-rule="evenodd" fill-opacity="1" /><path clip-path="url(#clip420)" d="M 0 0 M89.9086 1134 Q86.2975 1134 84.4688 1137.56 Q82.6632 1141.11 82.6632 1148.24 Q82.6632 1155.34 84.4688 1158.91 Q86.2975 1162.45 89.9086 1162.45 Q93.5428 1162.45 95.3483 1158.91 Q97.177 1155.34 97.177 1148.24 Q97.177 1141.11 95.3483 1137.56 Q93.5428 1134 89.9086 1134 M89.9086 1130.3 Q95.7187 1130.3 98.7743 1134.9 Q101.853 1139.49 101.853 1148.24 Q101.853 1156.96 98.7743 1161.57 Q95.7187 1166.15 89.9086 1166.15 Q84.0984 1166.15 81.0197 1161.57 Q77.9642 1156.96 77.9642 1148.24 Q77.9642 1139.49 81.0197 1134.9 Q84.0984 1130.3 89.9086 1130.3 Z" fill="#000000" fill-rule="evenodd" fill-opacity="1" /><path clip-path="url(#clip420)" d="M 0 0 M120.07 1134 Q116.459 1134 114.631 1137.56 Q112.825 1141.11 112.825 1148.24 Q112.825 1155.34 114.631 1158.91 Q116.459 1162.45 120.07 1162.45 Q123.705 1162.45 125.51 1158.91 Q127.339 1155.34 127.339 1148.24 Q127.339 1141.11 125.51 1137.56 Q123.705 1134 120.07 1134 M120.07 1130.3 Q125.881 1130.3 128.936 1134.9 Q132.015 1139.49 132.015 1148.24 Q132.015 1156.96 128.936 1161.57 Q125.881 1166.15 120.07 1166.15 Q114.26 1166.15 111.182 1161.57 Q108.126 1156.96 108.126 1148.24 Q108.126 1139.49 111.182 1134.9 Q114.26 1130.3 120.07 1130.3 Z" fill="#000000" fill-rule="evenodd" fill-opacity="1" /><path clip-path="url(#clip420)" d="M 0 0 M150.232 1134 Q146.621 1134 144.793 1137.56 Q142.987 1141.11 142.987 1148.24 Q142.987 1155.34 144.793 1158.91 Q146.621 1162.45 150.232 1162.45 Q153.867 1162.45 155.672 1158.91 Q157.501 1155.34 157.501 1148.24 Q157.501 1141.11 155.672 1137.56 Q153.867 1134 150.232 1134 M150.232 1130.3 Q156.042 1130.3 159.098 1134.9 Q162.177 1139.49 162.177 1148.24 Q162.177 1156.96 159.098 1161.57 Q156.042 1166.15 150.232 1166.15 Q144.422 1166.15 141.343 1161.57 Q138.288 1156.96 138.288 1148.24 Q138.288 1139.49 141.343 1134.9 Q144.422 1130.3 150.232 1130.3 Z" fill="#000000" fill-rule="evenodd" fill-opacity="1" /><path clip-path="url(#clip420)" d="M 0 0 M53.7745 855.635 L70.0939 855.635 L70.0939 859.57 L48.1495 859.57 L48.1495 855.635 Q50.8115 852.88 55.3949 848.251 Q60.0013 843.598 61.1819 842.255 Q63.4272 839.732 64.3068 837.996 Q65.2096 836.237 65.2096 834.547 Q65.2096 831.793 63.2652 830.056 Q61.3439 828.32 58.2421 828.32 Q56.043 828.32 53.5893 829.084 Q51.1588 829.848 48.381 831.399 L48.381 826.677 Q51.2051 825.543 53.6588 824.964 Q56.1124 824.385 58.1495 824.385 Q63.5198 824.385 66.7142 827.07 Q69.9087 829.756 69.9087 834.246 Q69.9087 836.376 69.0985 838.297 Q68.3115 840.195 66.205 842.788 Q65.6263 843.459 62.5245 846.677 Q59.4226 849.871 53.7745 855.635 Z" fill="#000000" fill-rule="evenodd" fill-opacity="1" /><path clip-path="url(#clip420)" d="M 0 0 M89.9086 828.089 Q86.2975 828.089 84.4688 831.654 Q82.6632 835.195 82.6632 842.325 Q82.6632 849.431 84.4688 852.996 Q86.2975 856.538 89.9086 856.538 Q93.5428 856.538 95.3483 852.996 Q97.177 849.431 97.177 842.325 Q97.177 835.195 95.3483 831.654 Q93.5428 828.089 89.9086 828.089 M89.9086 824.385 Q95.7187 824.385 98.7743 828.992 Q101.853 833.575 101.853 842.325 Q101.853 851.052 98.7743 855.658 Q95.7187 860.241 89.9086 860.241 Q84.0984 860.241 81.0197 855.658 Q77.9642 851.052 77.9642 842.325 Q77.9642 833.575 81.0197 828.992 Q84.0984 824.385 89.9086 824.385 Z" fill="#000000" fill-rule="evenodd" fill-opacity="1" /><path clip-path="url(#clip420)" d="M 0 0 M120.07 828.089 Q116.459 828.089 114.631 831.654 Q112.825 835.195 112.825 842.325 Q112.825 849.431 114.631 852.996 Q116.459 856.538 120.07 856.538 Q123.705 856.538 125.51 852.996 Q127.339 849.431 127.339 842.325 Q127.339 835.195 125.51 831.654 Q123.705 828.089 120.07 828.089 M120.07 824.385 Q125.881 824.385 128.936 828.992 Q132.015 833.575 132.015 842.325 Q132.015 851.052 128.936 855.658 Q125.881 860.241 120.07 860.241 Q114.26 860.241 111.182 855.658 Q108.126 851.052 108.126 842.325 Q108.126 833.575 111.182 828.992 Q114.26 824.385 120.07 824.385 Z" fill="#000000" fill-rule="evenodd" fill-opacity="1" /><path clip-path="url(#clip420)" d="M 0 0 M150.232 828.089 Q146.621 828.089 144.793 831.654 Q142.987 835.195 142.987 842.325 Q142.987 849.431 144.793 852.996 Q146.621 856.538 150.232 856.538 Q153.867 856.538 155.672 852.996 Q157.501 849.431 157.501 842.325 Q157.501 835.195 155.672 831.654 Q153.867 828.089 150.232 828.089 M150.232 824.385 Q156.042 824.385 159.098 828.992 Q162.177 833.575 162.177 842.325 Q162.177 851.052 159.098 855.658 Q156.042 860.241 150.232 860.241 Q144.422 860.241 141.343 855.658 Q138.288 851.052 138.288 842.325 Q138.288 833.575 141.343 828.992 Q144.422 824.385 150.232 824.385 Z" fill="#000000" fill-rule="evenodd" fill-opacity="1" /><path clip-path="url(#clip420)" d="M 0 0 M63.9133 535.026 Q67.2698 535.743 69.1448 538.012 Q71.0429 540.28 71.0429 543.613 Q71.0429 548.729 67.5244 551.53 Q64.0059 554.331 57.5245 554.331 Q55.3486 554.331 53.0338 553.891 Q50.7421 553.474 48.2884 552.618 L48.2884 548.104 Q50.2328 549.238 52.5477 549.817 Q54.8625 550.396 57.3856 550.396 Q61.7837 550.396 64.0754 548.66 Q66.3902 546.924 66.3902 543.613 Q66.3902 540.558 64.2374 538.845 Q62.1078 537.109 58.2884 537.109 L54.2606 537.109 L54.2606 533.266 L58.4735 533.266 Q61.9226 533.266 63.7513 531.901 Q65.58 530.512 65.58 527.919 Q65.58 525.257 63.6819 523.845 Q61.8069 522.41 58.2884 522.41 Q56.3671 522.41 54.168 522.827 Q51.969 523.243 49.3301 524.123 L49.3301 519.956 Q51.9921 519.215 54.3069 518.845 Q56.6449 518.475 58.705 518.475 Q64.0291 518.475 67.1309 520.905 Q70.2327 523.313 70.2327 527.433 Q70.2327 530.303 68.5892 532.294 Q66.9457 534.262 63.9133 535.026 Z" fill="#000000" fill-rule="evenodd" fill-opacity="1" /><path clip-path="url(#clip420)" d="M 0 0 M89.9086 522.178 Q86.2975 522.178 84.4688 525.743 Q82.6632 529.285 82.6632 536.414 Q82.6632 543.521 84.4688 547.086 Q86.2975 550.627 89.9086 550.627 Q93.5428 550.627 95.3483 547.086 Q97.177 543.521 97.177 536.414 Q97.177 529.285 95.3483 525.743 Q93.5428 522.178 89.9086 522.178 M89.9086 518.475 Q95.7187 518.475 98.7743 523.081 Q101.853 527.664 101.853 536.414 Q101.853 545.141 98.7743 549.748 Q95.7187 554.331 89.9086 554.331 Q84.0984 554.331 81.0197 549.748 Q77.9642 545.141 77.9642 536.414 Q77.9642 527.664 81.0197 523.081 Q84.0984 518.475 89.9086 518.475 Z" fill="#000000" fill-rule="evenodd" fill-opacity="1" /><path clip-path="url(#clip420)" d="M 0 0 M120.07 522.178 Q116.459 522.178 114.631 525.743 Q112.825 529.285 112.825 536.414 Q112.825 543.521 114.631 547.086 Q116.459 550.627 120.07 550.627 Q123.705 550.627 125.51 547.086 Q127.339 543.521 127.339 536.414 Q127.339 529.285 125.51 525.743 Q123.705 522.178 120.07 522.178 M120.07 518.475 Q125.881 518.475 128.936 523.081 Q132.015 527.664 132.015 536.414 Q132.015 545.141 128.936 549.748 Q125.881 554.331 120.07 554.331 Q114.26 554.331 111.182 549.748 Q108.126 545.141 108.126 536.414 Q108.126 527.664 111.182 523.081 Q114.26 518.475 120.07 518.475 Z" fill="#000000" fill-rule="evenodd" fill-opacity="1" /><path clip-path="url(#clip420)" d="M 0 0 M150.232 522.178 Q146.621 522.178 144.793 525.743 Q142.987 529.285 142.987 536.414 Q142.987 543.521 144.793 547.086 Q146.621 550.627 150.232 550.627 Q153.867 550.627 155.672 547.086 Q157.501 543.521 157.501 536.414 Q157.501 529.285 155.672 525.743 Q153.867 522.178 150.232 522.178 M150.232 518.475 Q156.042 518.475 159.098 523.081 Q162.177 527.664 162.177 536.414 Q162.177 545.141 159.098 549.748 Q156.042 554.331 150.232 554.331 Q144.422 554.331 141.343 549.748 Q138.288 545.141 138.288 536.414 Q138.288 527.664 141.343 523.081 Q144.422 518.475 150.232 518.475 Z" fill="#000000" fill-rule="evenodd" fill-opacity="1" /><path clip-path="url(#clip420)" d="M 0 0 M62.5939 217.263 L50.7884 235.712 L62.5939 235.712 L62.5939 217.263 M61.367 213.189 L67.2466 213.189 L67.2466 235.712 L72.1772 235.712 L72.1772 239.601 L67.2466 239.601 L67.2466 247.749 L62.5939 247.749 L62.5939 239.601 L46.9921 239.601 L46.9921 235.087 L61.367 213.189 Z" fill="#000000" fill-rule="evenodd" fill-opacity="1" /><path clip-path="url(#clip420)" d="M 0 0 M89.9086 216.268 Q86.2975 216.268 84.4688 219.833 Q82.6632 223.374 82.6632 230.504 Q82.6632 237.61 84.4688 241.175 Q86.2975 244.717 89.9086 244.717 Q93.5428 244.717 95.3483 241.175 Q97.177 237.61 97.177 230.504 Q97.177 223.374 95.3483 219.833 Q93.5428 216.268 89.9086 216.268 M89.9086 212.564 Q95.7187 212.564 98.7743 217.171 Q101.853 221.754 101.853 230.504 Q101.853 239.231 98.7743 243.837 Q95.7187 248.42 89.9086 248.42 Q84.0984 248.42 81.0197 243.837 Q77.9642 239.231 77.9642 230.504 Q77.9642 221.754 81.0197 217.171 Q84.0984 212.564 89.9086 212.564 Z" fill="#000000" fill-rule="evenodd" fill-opacity="1" /><path clip-path="url(#clip420)" d="M 0 0 M120.07 216.268 Q116.459 216.268 114.631 219.833 Q112.825 223.374 112.825 230.504 Q112.825 237.61 114.631 241.175 Q116.459 244.717 120.07 244.717 Q123.705 244.717 125.51 241.175 Q127.339 237.61 127.339 230.504 Q127.339 223.374 125.51 219.833 Q123.705 216.268 120.07 216.268 M120.07 212.564 Q125.881 212.564 128.936 217.171 Q132.015 221.754 132.015 230.504 Q132.015 239.231 128.936 243.837 Q125.881 248.42 120.07 248.42 Q114.26 248.42 111.182 243.837 Q108.126 239.231 108.126 230.504 Q108.126 221.754 111.182 217.171 Q114.26 212.564 120.07 212.564 Z" fill="#000000" fill-rule="evenodd" fill-opacity="1" /><path clip-path="url(#clip420)" d="M 0 0 M150.232 216.268 Q146.621 216.268 144.793 219.833 Q142.987 223.374 142.987 230.504 Q142.987 237.61 144.793 241.175 Q146.621 244.717 150.232 244.717 Q153.867 244.717 155.672 241.175 Q157.501 237.61 157.501 230.504 Q157.501 223.374 155.672 219.833 Q153.867 216.268 150.232 216.268 M150.232 212.564 Q156.042 212.564 159.098 217.171 Q162.177 221.754 162.177 230.504 Q162.177 239.231 159.098 243.837 Q156.042 248.42 150.232 248.42 Q144.422 248.42 141.343 243.837 Q138.288 239.231 138.288 230.504 Q138.288 221.754 141.343 217.171 Q144.422 212.564 150.232 212.564 Z" fill="#000000" fill-rule="evenodd" fill-opacity="1" /><polyline clip-path="url(#clip422)" style="stroke:#009af9; stroke-width:8; stroke-opacity:1; fill:none" points="
  293.457,1454.11 293.457,1417.71 361.165,1417.71 361.165,1419.85 428.873,1419.85 428.873,1416.18 496.581,1416.18 496.581,1418.63 564.288,1418.63 564.288,1421.68 
  631.996,1421.68 631.996,1420.46 699.704,1420.46 699.704,1414.34 767.412,1414.34 767.412,1414.04 835.119,1414.04 835.119,1414.95 902.827,1414.95 902.827,1417.71 
  970.535,1417.71 970.535,1411.59 1038.24,1411.59 1038.24,1408.22 1105.95,1408.22 1105.95,1410.37 1173.66,1410.37 1173.66,1410.98 1241.37,1410.98 1241.37,1402.41 
  1309.07,1402.41 1309.07,1388.65 1376.78,1388.65 1376.78,1346.12 1444.49,1346.12 1444.49,1128.62 1512.2,1128.62 1512.2,737.669 1579.9,737.669 1579.9,221.292 
  1647.61,221.292 1647.61,88.2208 1715.32,88.2208 1715.32,444.912 1783.03,444.912 1783.03,962.819 1850.74,962.819 1850.74,1294.73 1918.44,1294.73 1918.44,1410.98 
  1986.15,1410.98 1986.15,1430.86 2053.86,1430.86 2053.86,1426.58 2121.57,1426.58 2121.57,1422.6 2189.27,1422.6 2189.27,1424.44 2256.98,1424.44 2256.98,1427.5 
  2324.69,1427.5 2324.69,1435.45 2392.4,1435.45 2392.4,1431.78 2460.11,1431.78 2460.11,1427.5 2527.81,1427.5 2527.81,1425.97 2595.52,1425.97 2595.52,1425.36 
  2663.23,1425.36 2663.23,1427.5 2730.94,1427.5 2730.94,1431.47 2798.64,1431.47 2798.64,1428.11 2866.35,1428.11 2866.35,1426.89 2934.06,1426.89 2934.06,1432.7 
  3001.77,1432.7 3001.77,1430.56 3069.48,1430.56 3069.48,1454.11 
  "/>
<path clip-path="url(#clip420)" d="
M2675.29 216.466 L3054.67 216.466 L3054.67 95.5056 L2675.29 95.5056  Z
  " fill="#ffffff" fill-rule="evenodd" fill-opacity="1"/>
<polyline clip-path="url(#clip420)" style="stroke:#000000; stroke-width:4; stroke-opacity:1; fill:none" points="
  2675.29,216.466 3054.67,216.466 3054.67,95.5056 2675.29,95.5056 2675.29,216.466 
  "/>
<polyline clip-path="url(#clip420)" style="stroke:#009af9; stroke-width:4; stroke-opacity:1; fill:none" points="
  2707.98,155.986 2904.15,155.986 
  "/>
<path clip-path="url(#clip420)" d="M 0 0 M2950.69 175.673 Q2948.89 180.303 2947.17 181.715 Q2945.46 183.127 2942.59 183.127 L2939.19 183.127 L2939.19 179.562 L2941.69 179.562 Q2943.45 179.562 2944.42 178.728 Q2945.39 177.895 2946.57 174.793 L2947.34 172.849 L2936.85 147.34 L2941.36 147.34 L2949.46 167.617 L2957.57 147.34 L2962.08 147.34 L2950.69 175.673 Z" fill="#000000" fill-rule="evenodd" fill-opacity="1" /><path clip-path="url(#clip420)" d="M 0 0 M2969.37 169.33 L2977.01 169.33 L2977.01 142.965 L2968.7 144.631 L2968.7 140.372 L2976.96 138.706 L2981.64 138.706 L2981.64 169.33 L2989.28 169.33 L2989.28 173.266 L2969.37 173.266 L2969.37 169.33 Z" fill="#000000" fill-rule="evenodd" fill-opacity="1" /></svg>
